<!-- my asymetric spinner arrow head svg!! --> <svg id="spinner" viewBox="0 0 16 16" class="arrow-clockwise" xmlns="http://www.w3.org/2000/svg">
  <path fill-rule="evenodd" d="M3.17 6.706a5 5 0 0 1 7.103-3.16.5.5 0 1 0 .454-.892A6 6 0 1 0 13.455 5.5a.5.5 0 0 0-.91.417 5 5 0 1 1-9.375.789z"/>
<!--   <path fill-rule="evenodd" d="M8.707 0l2.5 2.5a.5.5 0 0 1 0 .708l-2.5 2.5a.5.5 0 1 1-.707-.708L10.293 3 "/> -->
  <path fill-rule="evenodd" clip-rule="evenodd" d="M-120.6-114.4c22.4-31.3,65.5-38.6,96.1-16.2c3.9,2.9,7.5,6.1,10.7,9.7c2.6,2.8,6.9,3,9.7,0.4	c2.8-2.6,3.1-7,0.5-9.9c-30.5-34-82.7-36.4-116.6-5.3s-36.8,84-6.3,118s82.7,36.3,116.7,5.2C9.1-29.6,19.1-54.5,17.5-80	c-0.3-3.8-3.6-6.7-7.3-6.4c-3.7,0.3-6.7,3.6-6.5,7.5C6.1-40.6-22.7-7.3-60.7-4.5s-70.6-26.1-73-64.4 C-134.7-85.2-130.1-101.2-120.6-114.4z"/>
<path fill-rule="evenodd" clip-rule="evenodd" d="M-0.9-122.3L0-143.5c-2-2.5-3.9-5.1-5.9-7.7l-8.7,24.4l-19.8-1.9c-1.6,4.3-0.6,8.3,0.8,12.3l25.4,0.7l0,0
	C-4.4-115.4-1.1-118.5-0.9-122.3z"/>
  
  </svg>