<?xml version="1.0" encoding="UTF-8" standalone="no"?>
<svg
   xmlns:dc="http://purl.org/dc/elements/1.1/"
   xmlns:cc="http://creativecommons.org/ns#"
   xmlns:rdf="http://www.w3.org/1999/02/22-rdf-syntax-ns#"
   xmlns:svg="http://www.w3.org/2000/svg"
   xmlns="http://www.w3.org/2000/svg"
   id="svg6"
   preserveAspectRatio="xMidYMid meet"
   viewBox="0 0 180.000000 125.000000"
   height="125.000000pt"
   width="180.000000pt"
   version="1.0">
  <metadata
     id="metadata12">
    <rdf:RDF>
      <cc:Work
         rdf:about="">
        <dc:format>image/svg+xml</dc:format>
        <dc:type
           rdf:resource="http://purl.org/dc/dcmitype/StillImage" />
      </cc:Work>
    </rdf:RDF>
  </metadata>
  <defs
     id="defs10" />
  <g
     id="g4"
     stroke="none"
     fill="red"
     transform="translate(0.000000,125.000000) scale(0.100000,-0.100000)">
    <path
       id="path2"
       d="M1360 1229 c-52 -4 -153 -10 -225 -13 -157 -8 -204 -26 -235 -92 -11 -22 -20 -48 -20 -57 0 -23 -2 -22 -46 21 -40 39 -129 77 -239 102 -27 7 -161 13 -297 15 -207 3 -248 2 -258 -11 -9 -10 -10 -33 -5 -77 3 -34 6 -125 6 -202 -2 -211 17 -632 28 -654 14 -25 52 -22 121 11 130 62 270 62 439 1 57 -21 106 -44 109 -51 3 -11 -2 -11 -24 1 -105 53 -293 64 -432 23 -152 -44 -268 -145 -198 -172 8 -3 43 13 78 35 95 60 182 84 303 84 149 1 237 -29 328 -112 47 -42 58 -38 104 40 51 85 72 91 275 84 92 -3 182 -10 199 -15 18 -5 53 -27 78 -48 65 -55 83 -63 160 -69 62 -5 70 -4 80 14 14 27 -8 46 -71 62 -27 6 -78 31 -115 56 -84 56 -108 63 -263 74 -159 11 -245 8 -292 -12 -21 -9 -38 -12 -38 -7 0 19 85 90 114 95 87 15 309 -8 421 -44 45 -15 84 -19 160 -18 l99 2 9 45 c4 25 5 72 2 105 -8 78 11 390 35 580 26 208 31 203 -175 207 -66 2 -163 0 -215 -3z m310 -79 c8 -5 5 -37 -10 -111 -16 -82 -22 -163 -28 -384 l-7 -280 -55 -3 c-35 -2 -81 4 -125 17 -89 26 -234 45 -350 45 -105 0 -148 -17 -208 -83 l-36 -40 -3 52 c-3 44 -6 52 -23 52 -17 0 -20 -8 -23 -45 -1 -25 -5 -56 -8 -69 -4 -21 -6 -22 -22 -8 -30 27 -214 87 -303 98 -72 9 -98 8 -170 -6 -46 -9 -101 -26 -122 -38 -64 -36 -65 -30 -55 253 9 231 5 440 -8 503 l-6 27 178 -1 c231 0 311 -10 409 -48 70 -27 84 -37 113 -79 l32 -47 0 -182 c0 -144 3 -182 14 -186 31 -12 36 16 36 188 0 94 4 175 9 180 4 6 19 41 32 78 36 105 41 107 260 112 100 2 184 6 187 9 7 8 279 4 292 -4z" />
  </g>
</svg>
