<svg version="1.0" xmlns="http://www.w3.org/2000/svg"
 width="50.000000pt" height="33.000000pt" viewBox="0 0 150.000000 133.000000"
 preserveAspectRatio="xMidYMid meet">
<g transform="translate(0.000000,133.000000) scale(0.100000,-0.100000)"
fill="none" stroke="#000000" stroke-width="36px">
<path d="M325 1309 c83 -5 172 -12 198 -17 27 -6 56 -8 65 -5 24 6 122 -87
122 -116 0 -39 -29 -36 -73 7 -31 31 -55 44 -92 52 -77 15 -258 30 -377 30
l-108 0 0 -495 0 -495 109 0 c166 0 404 -19 482 -39 l69 -17 0 437 c0 285 4
448 11 466 15 40 57 81 110 108 84 43 270 79 454 88 33 2 -205 3 -530 4 -413
0 -545 -2 -440 -8z"/>
<path d="M1175 1248 c-179 -20 -310 -61 -362 -114 l-33 -32 0 -447 c0 -386 2
-446 14 -442 75 29 342 57 544 57 l102 0 0 495 -1 495 -92 -1 c-51 -1 -128 -6
-172 -11z"/>
<path d="M164 201 c4 -6 2 -18 -4 -26 -11 -13 -3 -15 56 -15 212 0 461 -32
511 -66 20 -13 27 -13 51 0 50 26 174 46 360 58 100 6 177 15 171 19 -7 4 -9
15 -5 25 6 16 -3 17 -146 10 -213 -9 -378 -42 -378 -75 0 -17 -57 -13 -64 4
-14 39 -145 63 -375 72 -142 5 -182 3 -177 -6z"/>
</g>
</svg>
