<svg version="1.0" xmlns="http://www.w3.org/2000/svg"
 width="40.000000pt" height="28.000000pt" viewBox="0 0 40.000000 28.000000"
 preserveAspectRatio="xMidYMid meet">
<g transform="translate(0.000000,28.000000) scale(0.100000,-0.100000)"
fill="#000000" stroke="none">
<path d="M262 270 c-29 -3 -57 -12 -62 -20 -7 -11 -11 -12 -25 0 -8 7 -49 15
-90 18 l-75 5 0 -99 c0 -106 6 -129 30 -114 8 6 33 9 55 9 l40 -1 -44 -9 c-25
-5 -52 -16 -60 -25 -15 -15 -14 -16 4 -9 40 17 105 17 129 2 21 -14 24 -14 39
4 20 23 70 25 111 4 15 -8 38 -15 50 -15 14 0 7 7 -23 20 -24 11 -63 20 -88
20 -30 0 -42 4 -37 11 6 11 21 10 139 -4 18 -2 21 6 28 97 4 55 6 100 5 101
-10 7 -81 10 -126 5z m104 -97 c-5 -49 -10 -89 -12 -91 -1 -2 -28 1 -60 7 -47
9 -62 8 -80 -4 -17 -11 -24 -12 -27 -2 -3 7 -6 6 -6 -4 -1 -15 -5 -15 -43 -2
-32 11 -51 12 -75 5 l-32 -10 -3 89 -3 89 60 0 c82 0 105 -17 106 -78 l2 -47
6 58 c4 35 12 62 21 67 8 5 47 10 85 10 l70 0 -9 -87z"/>
</g>
</svg>
