<svg version="1.0" xmlns="http://www.w3.org/2000/svg"
 width="60.000000pt" height="42.000000pt" viewBox="0 0 60.000000 42.000000"
 preserveAspectRatio="xMidYMid meet">
<g transform="translate(0.000000,42.000000) scale(0.100000,-0.100000)"
fill="red" stroke="red" stroke-width="5">
<path d="M467 413 c-2 -2 -32 -4 -67 -4 -53 -1 -67 -5 -87 -26 l-25 -24 -43
21 c-36 17 -58 20 -136 18 l-93 -3 3 -150 c1 -82 6 -153 10 -158 4 -4 24 -1
44 8 41 17 85 19 107 5 11 -7 6 -10 -22 -10 -40 0 -121 -31 -133 -51 -9 -13
-1 -12 75 16 51 19 97 14 149 -16 l34 -20 22 27 c20 25 25 26 92 22 48 -2 78
-9 90 -20 22 -20 73 -34 73 -20 0 5 -24 21 -53 36 -43 21 -69 26 -127 26 -65
0 -71 2 -59 16 13 16 35 16 197 -2 l52 -6 0 79 c0 43 5 109 10 147 6 38 7 73
3 77 -9 7 -110 18 -116 12z m88 -70 c-4 -26 -9 -86 -11 -133 l-3 -85 -28 1
c-15 1 -59 7 -97 14 -64 11 -70 11 -97 -9 -26 -20 -29 -20 -38 -3 -9 15 -10
15 -11 -5 0 -27 2 -27 -61 -7 -48 16 -112 15 -152 -1 -16 -7 -17 3 -17 129 l0
136 69 0 c70 0 149 -21 163 -43 4 -7 8 -40 8 -74 0 -35 4 -63 10 -63 6 0 10
30 10 69 0 52 5 74 19 92 17 23 26 24 131 27 l112 3 -7 -48z"/>
</g>
</svg>
