<?xml version="1.0" standalone="no"?>
<!DOCTYPE svg PUBLIC "-//W3C//DTD SVG 20010904//EN"
 "http://www.w3.org/TR/2001/REC-SVG-20010904/DTD/svg10.dtd">
<svg version="1.0" xmlns="http://www.w3.org/2000/svg"
 width="150.000000pt" height="133.000000pt" viewBox="0 0 150.000000 133.000000"
 preserveAspectRatio="xMidYMid meet">
<metadata>
Created by potrace 1.16, written by Peter Selinger 2001-2019
</metadata>
<g transform="translate(0.000000,133.000000) scale(0.100000,-0.100000)"
fill="#000000" stroke="none">
<path d="M325 1309 c83 -5 172 -12 198 -17 27 -6 56 -8 65 -5 24 6 122 -87
122 -116 0 -39 -29 -36 -73 7 -31 31 -55 44 -92 52 -77 15 -258 30 -377 30
l-108 0 0 -495 0 -495 109 0 c166 0 404 -19 482 -39 l69 -17 0 437 c0 285 4
448 11 466 15 40 57 81 110 108 84 43 270 79 454 88 33 2 -205 3 -530 4 -413
0 -545 -2 -440 -8z"/>
<path d="M1175 1248 c-179 -20 -310 -61 -362 -114 l-33 -32 0 -447 c0 -386 2
-446 14 -442 75 29 342 57 544 57 l102 0 0 495 -1 495 -92 -1 c-51 -1 -128 -6
-172 -11z"/>
<path d="M164 201 c4 -6 2 -18 -4 -26 -11 -13 -3 -15 56 -15 212 0 461 -32
511 -66 20 -13 27 -13 51 0 50 26 174 46 360 58 100 6 177 15 171 19 -7 4 -9
15 -5 25 6 16 -3 17 -146 10 -213 -9 -378 -42 -378 -75 0 -17 -57 -13 -64 4
-14 39 -145 63 -375 72 -142 5 -182 3 -177 -6z"/>
<path d="M0 70 l0 -60 361 0 c375 0 398 3 323 39 -59 30 -162 42 -399 47 -182
5 -245 10 -262 20 -23 14 -23 14 -23 -46z"/>
<path d="M1478 116 c-13 -10 -80 -15 -245 -19 -126 -4 -261 -13 -303 -20 -85
-16 -150 -41 -150 -56 0 -8 115 -11 360 -11 l360 0 0 60 c0 33 -1 60 -2 60 -2
0 -11 -7 -20 -14z"/>
</g>
</svg>
