<?xml version="1.0" standalone="no"?>
<!DOCTYPE svg PUBLIC "-//W3C//DTD SVG 20010904//EN"
 "http://www.w3.org/TR/2001/REC-SVG-20010904/DTD/svg10.dtd">
<svg version="1.0" xmlns="http://www.w3.org/2000/svg"
 width="180.000000pt" height="125.000000pt" viewBox="0 0 180.000000 125.000000"
 preserveAspectRatio="xMidYMid meet">
<metadata>
Created by potrace 1.16, written by Peter Selinger 2001-2019
</metadata>
<g transform="translate(0.000000,125.000000) scale(0.100000,-0.100000)"
fill="#000000" stroke="none">
<path d="M277 1232 c-12 -13 -17 -37 -17 -83 0 -69 10 -89 45 -89 30 0 45 19
45 57 l0 33 380 0 380 0 0 -295 0 -295 -70 0 -70 0 0 73 c0 39 -4 78 -9 86
-11 17 -79 30 -163 31 l-68 0 0 29 c0 40 -23 61 -63 56 -100 -12 -129 -13
-187 -5 -100 14 -100 14 -97 -140 2 -118 0 -130 -15 -130 -13 0 -18 8 -18 28
0 33 -16 52 -45 52 -42 0 -45 -15 -45 -199 0 -157 2 -180 20 -208 23 -39 50
-54 103 -58 37 -3 42 -6 48 -33 22 -106 132 -167 233 -128 54 21 82 50 105
110 10 26 21 47 24 47 4 -1 105 -1 225 -1 l219 0 12 -40 c54 -179 316 -164
344 21 2 13 9 25 15 25 7 1 21 2 33 3 12 0 36 16 55 35 l34 34 0 116 c0 112
-1 117 -28 147 -18 20 -45 35 -74 43 l-47 12 -67 134 c-36 74 -71 138 -77 142
-7 4 -63 8 -124 8 l-113 0 0 183 c0 165 -2 186 -18 200 -17 15 -63 17 -454 17
-409 0 -436 -1 -451 -18z m1173 -617 c73 -153 71 -151 150 -157 l35 -3 0 -90
0 -90 -28 -3 c-22 -3 -37 5 -64 31 -69 70 -179 70 -248 2 l-34 -35 -256 0
c-162 0 -255 4 -255 10 0 17 -78 67 -115 74 -50 10 -110 -10 -154 -50 -30 -27
-47 -34 -79 -34 -49 0 -52 7 -52 111 l0 79 410 0 c390 0 411 1 429 19 17 17
19 33 17 145 -1 70 0 129 3 131 2 3 42 5 88 5 l84 0 69 -145z m-838 125 l36 0
0 -80 c0 -44 3 -84 7 -90 4 -6 -26 -10 -88 -10 l-94 0 -7 69 c-4 38 -4 81 0
96 7 27 8 27 58 21 28 -3 68 -6 88 -6z m274 -74 c1 0 -1 -25 -3 -53 l-6 -53
-67 0 -68 0 -4 43 c-6 57 -2 65 35 69 26 3 108 -2 113 -6z m-222 -437 c30 -35
32 -49 11 -88 -16 -33 -33 -41 -80 -41 -24 0 -39 7 -54 26 -69 88 52 188 123
103z m813 9 c30 -28 31 -83 1 -115 -48 -51 -141 -13 -141 57 0 69 89 106 140
58z"/>
<path d="M1230 711 c-14 -27 -13 -134 2 -149 7 -7 42 -12 85 -12 68 0 74 2 85
25 13 28 -5 108 -30 138 -23 26 -127 24 -142 -2z"/>
</g>
</svg>
