<?xml version="1.0" standalone="no"?>
<!DOCTYPE svg PUBLIC "-//W3C//DTD SVG 20010904//EN"
 "http://www.w3.org/TR/2001/REC-SVG-20010904/DTD/svg10.dtd">
<svg version="1.0" xmlns="http://www.w3.org/2000/svg"
 width="180.000000pt" height="125.000000pt" viewBox="0 0 180.000000 125.000000"
 preserveAspectRatio="xMidYMid meet">
<metadata>
Created by potrace 1.16, written by Peter Selinger 2001-2019
</metadata>
<g transform="translate(0.000000,125.000000) scale(0.100000,-0.100000)"
fill="#000000" stroke="none">
<path d="M277 1232 c-12 -13 -17 -37 -17 -83 0 -69 10 -89 45 -89 30 0 45 19
45 57 l0 33 380 0 380 0 0 -295 0 -295 -380 0 -380 0 0 28 c0 33 -16 52 -45
52 -41 0 -45 -15 -45 -197 0 -224 12 -253 113 -263 48 -5 52 -7 57 -36 22
-108 132 -169 234 -130 54 21 82 50 105 112 l19 49 223 0 224 0 13 -39 c19
-58 50 -96 96 -117 54 -24 100 -24 153 2 50 24 80 62 91 115 7 35 11 39 47 45
26 4 48 17 67 38 27 30 28 34 28 146 0 111 -1 116 -28 146 -18 20 -45 35 -74
43 l-47 12 -61 124 c-34 69 -69 133 -77 143 -14 14 -34 17 -130 17 l-113 0 0
183 c0 165 -2 186 -18 200 -17 15 -63 17 -454 17 -409 0 -436 -1 -451 -18z
m1174 -617 c74 -153 72 -151 149 -157 l35 -3 0 -90 0 -90 -28 -3 c-21 -3 -38
6 -67 32 -76 69 -177 68 -246 -1 l-33 -33 -255 0 c-241 0 -256 1 -266 19 -13
24 -66 57 -107 66 -46 9 -109 -11 -152 -51 -30 -27 -47 -34 -79 -34 -49 0 -52
7 -52 111 l0 79 408 0 c328 0 412 3 427 14 16 12 18 27 17 141 -1 71 1 132 4
137 3 4 43 8 90 8 l85 0 70 -145z m-793 -375 c62 -58 13 -154 -73 -141 -59 9
-84 84 -44 135 26 33 84 36 117 6z m819 -2 c51 -48 15 -138 -54 -138 -46 0
-69 14 -82 50 -28 82 73 147 136 88z"/>
</g>
</svg>
