<svg version="1.0" xmlns="http://www.w3.org/2000/svg"
 width="40.000000pt" height="40.000000pt" viewBox="0 0 40.000000 40.000000"
 preserveAspectRatio="xMidYMid meet">
<g transform="translate(0.000000,40.000000) scale(0.100000,-0.100000)"
fill="#000000" stroke="none">
<path d="M97 323 l-97 -78 0 -122 0 -123 200 0 201 0 -3 127 -3 127 -93 73
c-52 40 -97 73 -101 73 -4 0 -51 -35 -104 -77z m184 -9 c43 -30 79 -59 79 -63
0 -6 -63 -41 -75 -41 -3 0 -5 14 -5 30 l0 30 -85 0 -85 0 0 -30 c0 -16 -4 -30
-10 -30 -16 0 -60 23 -60 31 0 9 142 128 153 129 5 0 45 -25 88 -56z m97 -177
c1 -48 -1 -87 -5 -87 -10 0 -163 94 -163 100 0 9 144 79 155 76 6 -1 11 -42
13 -89z m-273 51 c36 -18 65 -35 65 -38 0 -6 -125 -101 -143 -108 -4 -2 -7 37
-7 87 0 53 4 91 10 91 5 0 39 -14 75 -32z m174 -99 c45 -29 81 -56 81 -60 0
-5 -73 -9 -161 -9 -149 0 -160 1 -148 17 17 19 130 103 140 103 4 0 44 -23 88
-51z"/>
</g>
</svg>
