<?xml version="1.0" standalone="no"?>
<!DOCTYPE svg PUBLIC "-//W3C//DTD SVG 20010904//EN"
 "http://www.w3.org/TR/2001/REC-SVG-20010904/DTD/svg10.dtd">
<svg version="1.0" xmlns="http://www.w3.org/2000/svg"
 width="40.000000pt" height="44.000000pt" viewBox="0 0 40.000000 44.000000"
 preserveAspectRatio="xMidYMid meet">
<metadata>
Created by potrace 1.16, written by Peter Selinger 2001-2019
</metadata>
<g transform="translate(0.000000,44.000000) scale(0.100000,-0.100000)"
fill="#000000" stroke="none">
<path d="M60 372 c0 -63 -2 -71 -30 -97 -33 -31 -38 -45 -16 -45 16 0 27 -91
23 -178 l-3 -52 169 0 169 0 -2 43 c-1 23 -1 77 -1 119 1 67 3 77 17 71 35
-13 -10 41 -135 161 l-51 50 -23 -22 c-24 -23 -40 -21 -30 4 4 11 -6 14 -41
14 l-46 0 0 -68z"/>
</g>
</svg>
