<?xml version="1.0" standalone="no"?>
<!DOCTYPE svg PUBLIC "-//W3C//DTD SVG 20010904//EN"
 "http://www.w3.org/TR/2001/REC-SVG-20010904/DTD/svg10.dtd">
<svg version="1.0" xmlns="http://www.w3.org/2000/svg"
 width="40.000000pt" height="44.000000pt" viewBox="0 0 40.000000 44.000000"
 preserveAspectRatio="xMidYMid meet">
<metadata>
Created by potrace 1.16, written by Peter Selinger 2001-2019
</metadata>
<g transform="translate(0.000000,44.000000) scale(0.100000,-0.100000)"
fill="#000000" stroke="none">
<path d="M60 367 c0 -55 -3 -67 -25 -87 -28 -27 -32 -40 -10 -40 13 0 15 -20
15 -120 l0 -120 85 0 85 0 0 100 0 100 50 0 50 0 0 -100 0 -100 25 0 25 0 0
120 c0 100 3 120 15 120 8 0 15 4 15 9 0 11 -184 181 -196 181 -4 0 -18 -10
-31 -22 l-23 -21 0 21 c0 19 -6 22 -40 22 l-40 0 0 -63z"/>
</g>
</svg>
