<svg version="1.0" xmlns="http://www.w3.org/2000/svg"
 width="40.000000pt" height="44.000000pt" viewBox="0 0 40.000000 44.000000"
 preserveAspectRatio="xMidYMid meet">
<g transform="translate(0.000000,44.000000) scale(0.100000,-0.100000)"
fill="#000000" stroke="none">
<path d="M60 367 c0 -55 -3 -67 -25 -87 -28 -27 -32 -40 -10 -40 8 0 15 -6 15
-14 0 -21 20 -30 33 -17 14 14 87 15 87 1 0 -6 32 -10 75 -10 l75 0 0 -100 0
-100 25 0 25 0 0 120 c0 100 3 120 15 120 8 0 15 4 15 9 0 11 -184 181 -196
181 -4 0 -18 -10 -31 -22 l-23 -21 0 21 c0 19 -6 22 -40 22 l-40 0 0 -63z"/>
<path d="M47 184 c-4 -4 -7 -47 -7 -96 l0 -88 85 0 86 0 -3 92 c-3 85 -5 93
-23 93 -16 0 -21 -8 -23 -42 -3 -43 -3 -43 -42 -43 -38 0 -39 0 -42 42 -3 39
-16 57 -31 42z"/>
</g>
</svg>
