<svg id="svg" version="1.1" xmlns="http://www.w3.org/2000/svg" xmlns:xlink="http://www.w3.org/1999/xlink" width="400" height="365.99999999999994" viewBox="0, 0, 400,365.99999999999994"><g id="svgg"><path id="path0" d="M186.605 48.560 C 91.645 58.946,36.525 159.350,79.128 244.337 C 94.458 274.919,121.639 299.065,153.856 310.725 C 166.283 315.222,173.203 313.256,173.555 305.128 C 173.794 299.614,170.673 296.538,161.355 293.106 C 85.179 265.052,59.244 173.073,109.755 110.103 C 146.889 63.810,214.854 53.502,264.469 86.638 C 280.226 97.162,298.686 117.224,296.606 121.564 C 295.540 123.787,295.282 123.782,280.838 121.281 C 260.189 117.706,258.969 117.619,261.603 119.918 C 262.822 120.982,308.488 144.691,314.771 147.521 C 323.352 151.388,331.447 144.658,330.043 134.824 C 329.417 130.441,326.862 120.536,325.102 115.671 C 324.206 113.197,320.662 102.353,317.226 91.575 C 308.042 62.770,307.968 62.693,307.911 81.868 C 307.870 95.395,307.755 95.950,305.002 95.965 C 304.136 95.970,302.925 94.926,297.859 89.807 C 267.478 59.109,227.083 44.132,186.605 48.560 M285.998 271.267 C 282.123 273.370,285.093 279.576,289.162 277.876 C 291.965 276.705,292.101 272.654,289.385 271.249 C 288.063 270.566,287.283 270.570,285.998 271.267 M266.499 289.278 C 261.875 290.453,262.235 297.447,266.968 298.394 C 272.084 299.417,274.095 291.549,269.216 289.597 C 267.688 288.986,267.662 288.983,266.499 289.278 M185.811 302.189 C 180.169 303.524,178.716 311.865,183.519 315.344 C 189.054 319.354,196.355 313.965,194.489 307.246 C 193.530 303.792,189.343 301.353,185.811 302.189 M239.377 303.658 C 235.188 306.415,237.034 312.815,242.020 312.819 C 244.003 312.821,245.968 311.209,246.530 309.120 C 247.623 305.062,242.818 301.394,239.377 303.658 M210.242 305.952 C 209.048 306.554,208.386 307.217,207.784 308.411 C 204.539 314.845,212.730 320.867,217.315 315.418 C 221.649 310.267,216.185 302.956,210.242 305.952 " stroke="none" fill="#060606" fill-rule="evenodd"></path><path id="path1" d="M0.000 183.150 L 0.000 366.300 200.000 366.300 L 400.000 366.300 400.000 183.150 L 400.000 0.000 200.000 0.000 L 0.000 0.000 0.000 183.150 M212.968 45.240 C 245.393 48.504,273.808 61.827,297.506 84.876 C 305.126 92.286,304.579 93.017,304.579 75.430 C 304.579 59.964,304.571 60.006,307.605 59.779 C 310.210 59.585,310.857 60.688,314.036 70.745 C 318.853 85.979,327.585 112.971,328.892 116.667 C 332.580 127.091,334.321 138.225,332.859 142.044 C 330.011 149.486,322.237 153.749,315.705 151.451 C 314.323 150.964,289.599 138.439,262.821 124.659 C 252.469 119.332,250.774 117.477,253.874 114.868 C 255.633 113.388,254.100 113.211,280.831 117.969 C 293.991 120.311,294.237 120.119,288.003 112.376 C 236.615 48.539,134.999 59.700,98.893 133.146 C 68.615 194.737,98.573 267.700,163.467 290.420 C 170.583 292.911,173.839 295.475,176.304 300.529 C 177.906 303.812,177.687 303.763,180.544 301.470 C 189.712 294.112,202.254 303.763,196.968 314.110 C 192.830 322.210,182.398 322.014,178.159 313.755 C 176.474 310.474,176.414 310.462,173.761 312.864 C 168.410 317.711,163.046 317.737,150.684 312.979 C 67.318 280.888,35.307 180.524,84.800 106.410 C 112.989 64.198,163.207 40.231,212.968 45.240 M291.636 268.705 C 297.319 272.720,294.646 281.514,287.747 281.496 C 280.303 281.475,278.153 271.626,284.799 267.988 C 286.543 267.034,289.746 267.369,291.636 268.705 M270.959 286.576 C 276.065 289.217,276.976 296.389,272.657 299.949 C 265.721 305.666,256.108 296.856,261.128 289.382 C 263.357 286.064,267.616 284.848,270.959 286.576 M246.014 300.940 C 250.631 303.795,251.393 309.663,247.669 313.678 C 244.103 317.523,237.608 316.785,234.940 312.233 C 230.563 304.764,238.729 296.436,246.014 300.940 M217.270 303.178 C 220.980 305.196,222.910 309.350,222.008 313.378 C 220.375 320.676,211.410 323.261,206.360 317.889 C 199.021 310.084,207.916 298.090,217.270 303.178 " stroke="none" fill="#fbfbfb" fill-rule="evenodd"></path><path id="path2" d="M186.570 45.249 C 105.340 53.679,48.583 129.502,63.740 209.341 C 72.657 256.308,105.658 295.647,150.684 312.979 C 163.046 317.737,168.410 317.711,173.761 312.864 C 176.414 310.462,176.474 310.474,178.159 313.755 C 182.398 322.014,192.830 322.210,196.968 314.110 C 202.254 303.763,189.712 294.112,180.544 301.470 C 177.687 303.763,177.906 303.812,176.304 300.529 C 173.839 295.475,170.583 292.911,163.467 290.420 C 98.573 267.700,68.615 194.737,98.893 133.146 C 134.999 59.700,236.615 48.539,288.003 112.376 C 294.237 120.119,293.991 120.311,280.831 117.969 C 254.100 113.211,255.633 113.388,253.874 114.868 C 250.774 117.477,252.469 119.332,262.821 124.659 C 289.599 138.439,314.323 150.964,315.705 151.451 C 322.237 153.749,330.011 149.486,332.859 142.044 C 334.321 138.225,332.580 127.091,328.892 116.667 C 327.585 112.971,318.853 85.979,314.036 70.745 C 310.857 60.688,310.210 59.585,307.605 59.779 C 304.571 60.006,304.579 59.964,304.579 75.430 C 304.579 93.017,305.126 92.286,297.506 84.876 C 267.404 55.598,226.757 41.078,186.570 45.249 M212.708 46.697 C 245.223 50.006,274.085 63.610,297.076 86.465 C 306.459 95.793,306.099 96.083,305.928 79.304 C 305.800 66.716,305.975 63.762,306.919 62.596 C 308.616 60.501,309.952 62.704,313.179 72.912 C 317.092 85.291,321.540 99.082,325.283 110.440 C 331.088 128.056,332.877 136.431,331.698 140.485 C 329.888 146.713,325.421 150.359,319.597 150.364 L 316.300 150.366 310.256 147.300 C 263.388 123.520,255.705 119.412,255.152 117.841 C 254.167 115.039,255.766 115.048,272.161 117.933 C 293.996 121.776,293.811 121.757,294.322 120.148 C 295.149 117.541,281.958 102.278,272.022 94.346 C 196.539 34.084,85.795 87.256,85.924 183.700 C 85.990 232.710,115.185 274.302,161.355 291.162 C 168.074 293.616,169.283 294.259,171.760 296.699 C 181.919 306.700,171.688 318.658,157.143 313.785 C 79.910 287.908,41.756 201.968,74.596 127.850 C 98.346 74.247,155.192 40.845,212.708 46.697 M284.799 267.988 C 278.153 271.626,280.303 281.475,287.747 281.496 C 296.783 281.520,297.032 268.027,288.006 267.508 C 286.549 267.424,285.558 267.573,284.799 267.988 M289.973 269.460 C 292.636 270.724,293.882 273.742,292.853 276.435 C 290.620 282.283,282.414 280.655,282.419 274.365 C 282.422 270.284,286.344 267.738,289.973 269.460 M265.173 286.194 C 258.480 288.694,257.878 297.745,264.194 300.893 C 272.178 304.871,279.414 294.456,273.045 288.153 C 270.921 286.050,267.703 285.249,265.173 286.194 M271.109 288.453 C 274.443 290.649,274.862 295.945,271.912 298.612 C 267.189 302.884,259.834 298.212,261.563 292.038 C 262.751 287.794,267.437 286.035,271.109 288.453 M237.981 300.632 C 230.825 304.832,233.195 315.592,241.379 316.054 C 249.956 316.539,253.349 305.475,246.014 300.940 C 243.412 299.332,240.394 299.216,237.981 300.632 M191.745 301.405 C 197.189 304.326,198.270 311.157,194.007 315.691 C 189.613 320.365,182.502 319.190,179.628 313.316 C 175.676 305.239,183.873 297.181,191.745 301.405 M244.574 301.812 C 247.470 303.126,249.150 306.557,248.352 309.523 C 246.280 317.216,235.348 315.830,235.348 307.875 C 235.348 302.757,239.969 299.720,244.574 301.812 M210.292 302.235 C 203.661 304.253,201.527 312.749,206.360 317.889 C 211.410 323.261,220.375 320.676,222.008 313.378 C 223.503 306.700,216.743 300.270,210.292 302.235 M216.367 304.340 C 221.267 306.852,222.224 312.877,218.358 316.868 C 211.825 323.610,201.511 315.144,206.433 307.080 C 208.551 303.610,212.708 302.463,216.367 304.340 " stroke="none" fill="#a2a2a2" fill-rule="evenodd"></path><path id="path3" d="M186.813 47.094 C 138.859 52.087,97.820 80.796,76.888 123.993 C 41.484 197.058,77.236 284.469,153.870 312.208 C 166.766 316.877,175.229 313.986,175.229 304.912 C 175.229 298.775,171.382 295.249,160.256 291.184 C 81.306 262.339,59.632 159.969,120.009 101.094 C 167.974 54.322,246.114 58.650,288.748 110.440 C 298.044 121.732,297.495 122.822,283.752 120.351 C 259.299 115.953,256.718 115.637,255.900 116.941 C 255.316 117.873,255.922 118.640,258.458 120.175 C 261.599 122.078,314.211 148.961,316.090 149.624 C 323.489 152.235,331.778 145.604,331.635 137.187 C 331.559 132.670,329.384 124.158,324.522 109.341 C 322.143 102.088,318.024 89.396,315.369 81.136 C 309.458 62.740,308.849 61.399,307.284 63.331 C 306.458 64.350,306.464 64.246,306.433 80.087 C 306.402 96.751,306.695 96.502,297.619 87.561 C 267.034 57.433,227.207 42.888,186.813 47.094 M212.660 48.524 C 246.022 51.919,273.576 65.270,297.859 89.807 C 302.925 94.926,304.136 95.970,305.002 95.965 C 307.755 95.950,307.870 95.395,307.911 81.868 C 307.968 62.693,308.042 62.770,317.226 91.575 C 320.662 102.353,324.206 113.197,325.102 115.671 C 326.862 120.536,329.417 130.441,330.043 134.824 C 331.447 144.658,323.352 151.388,314.771 147.521 C 308.488 144.691,262.822 120.982,261.603 119.918 C 258.969 117.619,260.189 117.706,280.838 121.281 C 295.282 123.782,295.540 123.787,296.606 121.564 C 298.686 117.224,280.226 97.162,264.469 86.638 C 205.754 47.425,125.344 69.653,95.057 133.471 C 65.420 195.922,95.746 268.944,161.355 293.106 C 170.673 296.538,173.794 299.614,173.555 305.128 C 173.203 313.256,166.283 315.222,153.856 310.725 C 80.621 284.221,44.879 201.263,75.815 129.589 C 98.906 76.090,155.294 42.686,212.660 48.524 M285.442 269.833 C 281.724 271.666,281.956 277.353,285.827 279.250 C 287.612 280.126,289.336 279.823,291.028 278.337 C 295.480 274.429,290.743 267.220,285.442 269.833 M289.385 271.249 C 292.101 272.654,291.965 276.705,289.162 277.876 C 285.093 279.576,282.123 273.370,285.998 271.267 C 287.283 270.570,288.063 270.566,289.385 271.249 M265.356 288.240 C 259.931 290.704,260.930 298.948,266.759 299.822 C 274.158 300.932,276.199 289.943,268.966 287.934 C 267.174 287.436,267.115 287.441,265.356 288.240 M269.216 289.597 C 274.095 291.549,272.084 299.417,266.968 298.394 C 262.235 297.447,261.875 290.453,266.499 289.278 C 267.662 288.983,267.688 288.986,269.216 289.597 M185.474 300.787 C 182.027 301.559,179.121 305.387,179.121 309.155 C 179.121 319.247,192.429 321.607,195.780 312.108 C 197.992 305.839,192.053 299.314,185.474 300.787 M239.359 301.980 C 236.982 303.016,235.200 306.363,235.676 308.898 C 236.700 314.357,243.476 316.169,246.760 311.862 C 250.646 306.769,245.165 299.451,239.359 301.980 M190.888 302.964 C 195.487 305.275,196.170 311.417,192.213 314.891 C 187.503 319.027,180.602 315.728,180.602 309.341 C 180.602 303.656,185.823 300.419,190.888 302.964 M244.256 303.674 C 246.009 304.743,247.042 307.218,246.530 309.120 C 245.360 313.465,239.501 314.143,237.608 310.153 C 235.480 305.668,240.116 301.150,244.256 303.674 M210.440 304.194 C 206.170 305.761,204.241 311.396,206.644 315.284 C 209.699 320.227,216.364 320.125,219.315 315.091 C 222.748 309.232,216.757 301.876,210.440 304.194 M215.230 305.823 C 219.115 307.587,220.098 312.111,217.315 315.418 C 212.730 320.867,204.539 314.845,207.784 308.411 C 209.219 305.564,212.302 304.493,215.230 305.823 " stroke="none" fill="#7c7c7c" fill-rule="evenodd"></path><path id="path4" d="M186.447 46.745 C 133.161 52.183,87.639 88.340,70.213 139.067 C 45.457 211.128,84.408 289.415,157.143 313.785 C 171.688 318.658,181.919 306.700,171.760 296.699 C 169.283 294.259,168.074 293.616,161.355 291.162 C 96.806 267.591,67.286 194.450,97.434 132.784 C 129.523 67.146,214.514 48.434,272.022 94.346 C 281.958 102.278,295.149 117.541,294.322 120.148 C 293.811 121.757,293.996 121.776,272.161 117.933 C 255.766 115.048,254.167 115.039,255.152 117.841 C 255.705 119.412,263.388 123.520,310.256 147.300 L 316.300 150.366 319.597 150.364 C 325.421 150.359,329.888 146.713,331.698 140.485 C 332.877 136.431,331.088 128.056,325.283 110.440 C 321.540 99.082,317.092 85.291,313.179 72.912 C 309.952 62.704,308.616 60.501,306.919 62.596 C 305.975 63.762,305.800 66.716,305.928 79.304 C 306.099 96.083,306.459 95.793,297.076 86.465 C 267.740 57.302,226.852 42.622,186.447 46.745 M212.454 47.069 C 245.295 50.226,273.174 63.482,297.619 87.561 C 306.695 96.502,306.402 96.751,306.433 80.087 C 306.464 64.246,306.458 64.350,307.284 63.331 C 308.849 61.399,309.458 62.740,315.369 81.136 C 318.024 89.396,322.143 102.088,324.522 109.341 C 329.384 124.158,331.559 132.670,331.635 137.187 C 331.778 145.604,323.489 152.235,316.090 149.624 C 314.211 148.961,261.599 122.078,258.458 120.175 C 255.922 118.640,255.316 117.873,255.900 116.941 C 256.718 115.637,259.299 115.953,283.752 120.351 C 297.495 122.822,298.044 121.732,288.748 110.440 C 246.114 58.650,167.974 54.322,120.009 101.094 C 59.632 159.969,81.306 262.339,160.256 291.184 C 171.382 295.249,175.229 298.775,175.229 304.912 C 175.229 313.986,166.766 316.877,153.870 312.208 C 81.960 286.179,45.223 207.043,71.852 135.531 C 93.255 78.052,151.774 41.234,212.454 47.069 M285.070 269.595 C 283.400 270.613,282.421 272.375,282.419 274.365 C 282.414 280.655,290.620 282.283,292.853 276.435 C 294.651 271.729,289.293 267.020,285.070 269.595 M289.670 269.745 C 293.243 271.604,293.908 275.809,291.028 278.337 C 288.588 280.480,285.426 280.049,283.613 277.327 C 280.819 273.132,285.330 267.487,289.670 269.745 M265.662 287.573 C 262.961 288.389,260.772 292.124,261.352 294.926 C 262.625 301.083,270.456 302.197,273.299 296.626 C 275.772 291.780,270.890 285.993,265.662 287.573 M268.966 287.934 C 274.462 289.460,275.209 296.817,270.119 299.281 C 264.490 302.005,259.145 294.915,263.068 289.929 C 264.511 288.093,266.778 287.327,268.966 287.934 M184.982 300.549 C 176.485 303.260,176.569 315.338,185.105 318.173 C 191.485 320.292,198.159 313.710,196.367 307.067 C 195.092 302.340,189.464 299.119,184.982 300.549 M191.051 301.457 C 195.150 303.220,197.249 307.946,195.780 312.108 C 193.999 317.157,188.433 319.635,184.066 317.323 C 174.012 312.002,180.627 296.976,191.051 301.457 M238.735 301.857 C 234.132 304.287,234.180 311.548,238.814 313.912 C 242.620 315.854,247.217 313.739,248.352 309.523 C 249.798 304.152,243.659 299.258,238.735 301.857 M244.065 301.960 C 246.760 303.086,248.627 306.543,248.008 309.258 C 246.747 314.784,239.898 316.084,236.739 311.397 C 233.311 306.310,238.495 299.633,244.065 301.960 M209.526 304.276 C 204.046 307.094,203.672 314.856,208.862 318.065 C 216.627 322.865,224.721 312.711,218.547 305.917 C 216.280 303.422,212.517 302.737,209.526 304.276 M216.040 304.539 C 222.246 307.748,221.539 316.514,214.899 318.668 C 210.899 319.966,206.244 316.818,205.639 312.406 C 204.833 306.525,210.943 301.903,216.040 304.539 " stroke="none" fill="#848484" fill-rule="evenodd"></path></g></svg>