<?xml version="1.0" encoding="utf-8"?>
<!-- Generator: Adobe Illustrator 25.1.0, SVG Export Plug-In . SVG Version: 6.00 Build 0)  -->
<svg version="1.1" id="Layer_1" xmlns="http://www.w3.org/2000/svg" xmlns:xlink="http://www.w3.org/1999/xlink" x="0px" y="0px"
	 viewBox="0 0 40 40" style="enable-background:new 0 0 40 40;" xml:space="preserve">
<style type="text/css">
	.st0{fill:#010101;}
</style>
<g transform="translate(0.000000,180.000000) scale(0.100000,-0.100000)">
	<path class="st0" d="M1.6,1696.71l-1.3-101.39l9.78-34.35c11.47-40.7,22.73-80.74,33.78-119.9c4.46-15.75,8.95-29.76,10.26-31.09
		c1.53-2.2,38.83-3.29,172.75-4.88l170.78-2.02l1.33,103.78l1.33,103.78l-11.7,40.7c-6.37,22.54-17.85,63.01-25.5,89.93
		c-7.65,26.69-14.47,49.67-15.12,50.77c-0.65,1.1-73.71,2.83-173.2,4.01L2.9,1798.1L1.6,1696.71z M235.16,1687.63l27.48-91.69
		l-0.93-20.92l-0.93-20.92l-21.47,75.49l-21.69,75.49l-39.53,0.47l-39.75,0.47l-1.29-48.61l-1.06-48.4l-61.73,1.17l-61.51,1.38
		l0.4,82.86c0.36,45.57,1.08,84.16,1.76,85.68c0.69,2.17,21.35,2.36,96.86,1.04l95.93-1.79L235.16,1687.63z M344.82,1752.19
		c4.25-14.88,14.87-52.73,23.8-84.24c8.92-31.73,16.13-58.41,16.12-59.72s-19.79-1.95-54.88-1.53l-55.08,0.65l-14.7,48.8
		c-16.4,54.93-35.15,117.3-36.43,121.46c-0.64,1.97,11.58,2.48,56.44,1.95l57.3-0.68L344.82,1752.19z M208.06,1687.95
		c-0.02-1.53,11.02-41.34,24.41-88.39c13.39-47.04,24.43-86.64,24.42-87.95c-0.02-1.53-8.91-2.08-26.01-1.44l-25.98,0.96
		l-11.27,39.39c-18.92,66.3-38.88,138.28-38.86,139.59c0.01,0.87,12.01,1.38,26.67,1.21
		C202.33,1691.07,208.09,1690.35,208.06,1687.95z M155.8,1630.56c8.24-33.24,36.98-130.19,39.17-133.05
		c1.75-1.98,11.74-2.76,40.39-2.66l37.99,0.21l1.29,48.61l1.06,48.4l56.63-0.67l56.63-0.67l-1.09-85.03l-1.09-85.03l-93.05,1.1
		l-93.05,1.1l-4.25,14.88c-2.34,8.1-9.98,35.88-17.42,61.7c-7.22,25.82-16.78,59.95-21.46,75.92c-7.23,25.38-8.26,31.5-8.01,51.12
		c0.16,12.21,0.72,21.8,1.16,21.36C151.13,1647.41,153.47,1639.53,155.8,1630.56z M143.28,1572.49c3.4-11.82,8.29-29.32,10.83-38.94
		c2.54-9.62,9.76-35.66,16.36-57.98c6.38-22.32,12.11-43.1,12.95-46.6l1.26-5.9l-60.63,0.72l-60.63,0.72l-4.45,17.06
		c-5.29,20.78-40.56,145.71-42.28,150.31c-1.07,2.85,6.26,3.2,59.56,2.57l60.85-0.72L143.28,1572.49z"/>
</g>
</svg>
