<?xml version="1.0" encoding="utf-8"?>
<!-- Generator: Adobe Illustrator 25.1.0, SVG Export Plug-In . SVG Version: 6.00 Build 0)  -->
<svg version="1.1" id="Layer_1" xmlns="http://www.w3.org/2000/svg" xmlns:xlink="http://www.w3.org/1999/xlink" x="0px" y="0px"
	 viewBox="0 0 180 180" style="enable-background:new 0 0 180 180;" xml:space="preserve">
<g transform="translate(0.000000,180.000000) scale(0.100000,-0.100000)">
	<path d="M517.8,1076l-2.4-190.8l18.8-64.7c22.1-76.6,43.8-151.9,65.1-225.7c8.6-29.6,17.2-56,19.8-58.5c2.9-4.1,74.7-6.2,332.4-9.3
		l328.6-3.9l2.5,195.3l2.5,195.3l-22.5,76.6c-12.3,42.4-34.4,118.6-49.1,169.2c-14.7,50.2-27.9,93.5-29.1,95.6
		c-1.3,2.1-141.8,5.4-333.2,7.6l-330.7,3.9L517.8,1076z M967.1,1058.8l52.9-172.6l-1.8-39.4l-1.8-39.4l-41.3,142.1l-41.8,142.1
		l-76.1,0.9l-76.5,0.9l-2.5-91.5l-2-91.1l-118.8,2.2l-118.3,2.6l0.7,155.9c0.7,85.8,2,158.4,3.4,161.2c1.3,4.1,41.1,4.4,186.4,1.9
		l184.6-3.4L967.1,1058.8z M1178.1,1180.2c8.2-28,28.6-99.2,45.8-158.5c17.2-59.7,31.1-109.9,31-112.4s-38.1-3.7-105.6-2.9l-106,1.3
		l-28.3,91.8c-31.6,103.4-67.7,220.8-70.1,228.6c-1.2,3.7,22.3,4.7,108.6,3.6l110.2-1.3L1178.1,1180.2z M915,1059.4
		c0-2.9,21.2-77.8,47-166.3s47.1-163.1,47-165.5c0-2.9-17.1-3.9-50-2.7l-50,1.8l-21.7,74.1c-36.4,124.8-74.9,260.2-74.8,262.7
		c0,1.6,23.1,2.6,51.3,2.3C904,1065.3,915.1,1063.9,915,1059.4z M814.5,951.4c15.9-62.6,71.2-245,75.4-250.4
		c3.4-3.7,22.6-5.2,77.7-5l73.1,0.4l2.5,91.5l2,91.1l109-1.3l109-1.3l-2.1-160l-2.1-160l-179,2.1l-179,2.1l-8.2,28
		c-4.5,15.2-19.2,67.5-33.6,116.1c-13.9,48.6-32.3,112.8-41.3,142.9c-13.9,47.8-15.9,59.3-15.4,96.2c0.3,23,1.4,41,2.2,40.2
		C805.5,983.1,810,968.3,814.5,951.4z M790.4,842.1c6.6-22.2,16-55.2,20.9-73.3c4.9-18.1,18.8-67.1,31.5-109.1
		c12.3-42,23.3-81.1,24.9-87.7l2.4-11.1l-116.7,1.4l-116.7,1.4l-8.6,32.1c-10.2,39.1-78.1,274.2-81.4,282.9c-2.1,5.4,12,6,114.6,4.8
		l117.1-1.4L790.4,842.1z"/>
</g>
</svg>
