<?xml version="1.0" standalone="no"?>
<!DOCTYPE svg PUBLIC "-//W3C//DTD SVG 20010904//EN"
 "http://www.w3.org/TR/2001/REC-SVG-20010904/DTD/svg10.dtd">
<svg version="1.0" xmlns="http://www.w3.org/2000/svg"
 width="738.000000pt" height="646.000000pt" viewBox="0 0 738.000000 646.000000"
 preserveAspectRatio="xMidYMid meet">
<metadata>
Created by potrace 1.16, written by Peter Selinger 2001-2019
</metadata>
<g transform="translate(0.000000,646.000000) scale(0.100000,-0.100000)"
fill="#000000" stroke="none">
<path d="M80 4760 c0 -1023 3 -1566 10 -1578 9 -15 443 -1319 514 -1542 15
-47 30 -92 35 -100 5 -9 12 -31 16 -50 4 -19 11 -39 15 -45 4 -5 11 -26 15
-45 4 -19 11 -39 15 -45 4 -5 11 -26 15 -45 4 -19 11 -39 15 -45 4 -5 11 -26
15 -45 4 -19 11 -39 15 -45 4 -5 11 -26 15 -45 4 -19 11 -39 15 -45 4 -5 11
-26 15 -45 4 -19 11 -41 16 -50 5 -8 34 -94 65 -190 74 -226 178 -540 203
-610 l19 -55 3101 -5 3101 -5 -3 1565 -2 1565 -89 260 c-49 143 -92 267 -96
275 -4 9 -11 31 -15 50 -4 19 -11 40 -15 45 -4 6 -11 26 -15 45 -4 19 -11 40
-15 45 -4 6 -11 26 -15 45 -4 19 -11 40 -15 45 -4 6 -11 26 -15 45 -4 19 -11
40 -15 45 -4 6 -11 26 -15 45 -4 19 -11 41 -16 50 -5 8 -48 134 -95 280 -199
606 -325 986 -333 1000 -5 9 -12 31 -16 50 -4 19 -11 40 -15 45 -4 6 -11 26
-15 45 -4 19 -11 41 -15 50 -4 8 -42 119 -84 245 -41 127 -85 258 -97 293
l-22 62 -3098 0 -3099 0 0 -1560z m3796 1482 c6 -10 15 -33 19 -52 4 -19 10
-39 14 -45 4 -5 15 -35 25 -65 24 -75 56 -162 66 -180 4 -9 11 -31 15 -50 4
-19 11 -41 16 -50 8 -14 35 -92 90 -255 11 -33 24 -69 29 -80 5 -11 18 -47 29
-80 11 -33 41 -118 66 -190 25 -71 55 -157 66 -190 11 -33 24 -69 29 -80 9
-20 52 -142 91 -260 11 -33 24 -69 29 -80 5 -11 18 -47 29 -80 11 -33 41 -118
66 -190 26 -71 53 -148 60 -170 8 -22 34 -98 60 -170 25 -71 55 -157 65 -190
11 -33 24 -67 29 -75 5 -9 12 -31 16 -50 4 -19 11 -41 15 -50 10 -18 42 -105
66 -180 10 -30 21 -59 25 -65 4 -5 10 -26 14 -45 4 -19 12 -41 19 -49 8 -10
11 -230 13 -795 1 -501 -2 -768 -8 -746 -5 19 -13 42 -18 50 -5 9 -12 31 -16
50 -4 19 -11 40 -15 45 -4 6 -11 26 -15 45 -4 19 -11 40 -15 45 -4 6 -11 26
-15 45 -4 19 -11 40 -15 45 -4 6 -11 26 -15 45 -4 19 -11 40 -15 45 -4 6 -11
26 -15 45 -4 19 -10 40 -13 45 -4 6 -202 597 -442 1315 l-436 1305 -642 3
-642 2 0 -805 0 -805 -1245 0 -1245 0 0 1505 0 1505 1878 0 c1790 0 1878 -1
1888 -18z m2411 -34 c11 -29 50 -147 87 -263 38 -115 72 -217 76 -225 4 -9 11
-31 15 -50 4 -19 10 -39 14 -45 4 -5 17 -44 30 -85 12 -41 27 -84 31 -95 9
-20 123 -365 319 -960 56 -170 105 -317 110 -325 5 -9 12 -31 16 -50 4 -19 11
-39 15 -45 4 -5 11 -26 15 -45 4 -19 11 -39 15 -45 4 -5 11 -26 15 -45 4 -19
11 -39 15 -45 4 -5 11 -26 15 -45 4 -19 11 -41 15 -50 4 -8 45 -127 90 -263
45 -137 84 -255 87 -263 4 -12 -160 -14 -1149 -14 -1096 0 -1154 1 -1164 18
-6 10 -15 33 -19 52 -4 19 -10 40 -14 45 -4 6 -15 35 -25 65 -24 75 -56 162
-66 180 -4 9 -11 31 -15 50 -4 19 -11 41 -16 50 -5 8 -18 42 -29 75 -10 33
-40 119 -65 190 -26 72 -52 148 -60 170 -7 22 -34 99 -60 170 -25 72 -55 157
-66 190 -11 33 -24 69 -29 80 -9 20 -52 142 -91 260 -11 33 -24 69 -29 80 -5
11 -18 47 -29 80 -11 33 -41 119 -66 190 -25 72 -55 157 -66 190 -11 33 -24
69 -29 80 -5 11 -18 47 -29 80 -55 163 -82 241 -90 255 -5 9 -12 31 -16 50 -4
19 -11 41 -16 50 -11 21 -31 77 -73 205 -20 61 -41 118 -46 127 -6 10 -10 20
-10 23 0 3 533 5 1184 5 l1183 0 20 -52z m-2404 -1440 c9 -24 201 -599 427
-1278 226 -679 414 -1242 419 -1250 5 -9 12 -31 16 -50 4 -19 11 -39 15 -45 4
-5 11 -26 15 -45 4 -19 11 -39 15 -45 4 -5 11 -26 15 -45 4 -19 11 -39 15 -45
4 -5 11 -26 15 -45 4 -19 11 -39 15 -45 4 -5 11 -26 15 -45 4 -19 11 -39 15
-45 4 -5 11 -26 15 -45 4 -19 11 -39 15 -45 4 -5 10 -22 14 -37 l6 -28 -615 0
-615 0 -6 28 c-4 15 -10 32 -14 37 -4 6 -11 26 -15 45 -4 19 -11 40 -15 45 -4
6 -11 26 -15 45 -4 19 -11 40 -15 45 -4 6 -11 26 -15 45 -4 19 -11 40 -15 45
-4 6 -11 26 -15 45 -4 19 -11 41 -16 50 -5 8 -25 67 -45 130 -20 63 -40 124
-45 135 -4 11 -186 555 -404 1210 -218 655 -400 1199 -405 1210 -5 11 -12 30
-15 43 l-6 22 614 0 614 0 16 -42z m-1193 -203 c5 -11 187 -555 405 -1210 218
-655 399 -1197 404 -1205 5 -9 12 -31 16 -50 4 -19 11 -39 15 -45 4 -5 11 -26
15 -45 4 -19 11 -39 15 -45 4 -5 11 -26 15 -45 4 -19 11 -39 15 -45 4 -5 11
-26 15 -45 4 -19 11 -39 15 -45 4 -5 11 -26 15 -45 4 -19 11 -41 15 -50 5 -8
16 -36 25 -62 l17 -48 639 0 639 0 0 805 0 805 1155 0 1155 0 0 -1505 0 -1505
-1820 0 c-1795 0 -1820 0 -1820 19 0 11 -4 22 -9 25 -5 3 -12 22 -16 42 -3 20
-10 44 -15 53 -5 9 -109 317 -231 686 -121 369 -224 677 -229 685 -4 9 -11 31
-15 50 -4 19 -11 40 -15 45 -4 6 -11 26 -15 45 -4 19 -11 40 -15 45 -4 6 -11
26 -15 45 -4 19 -11 40 -15 45 -4 6 -11 26 -15 45 -4 19 -11 40 -15 45 -4 6
-11 26 -15 45 -4 19 -11 40 -15 45 -4 6 -11 26 -15 45 -4 19 -11 40 -15 45 -4
6 -11 26 -15 45 -4 19 -11 41 -16 50 -5 8 -74 212 -154 453 l-145 439 0 761 1
762 25 -80 c14 -44 30 -89 34 -100z m79 -1850 c86 -258 159 -474 163 -480 3
-5 9 -26 13 -45 4 -19 11 -39 15 -45 4 -5 11 -26 15 -45 4 -19 11 -39 15 -45
4 -5 11 -26 15 -45 4 -19 11 -39 15 -45 4 -5 11 -26 15 -45 4 -19 11 -39 15
-45 4 -5 11 -26 15 -45 4 -19 11 -39 15 -45 4 -5 11 -26 15 -45 4 -19 11 -41
15 -50 5 -8 108 -316 229 -685 122 -369 226 -677 231 -686 5 -9 12 -33 15 -53
4 -20 11 -39 16 -42 5 -3 9 -14 9 -25 0 -19 -19 -19 -1244 -19 l-1243 0 -16
43 c-17 48 -106 316 -191 577 -31 96 -60 182 -65 190 -5 9 -12 31 -16 50 -4
19 -11 40 -15 45 -4 6 -11 26 -15 45 -4 19 -11 40 -15 45 -4 6 -11 26 -15 45
-4 19 -11 40 -15 45 -4 6 -11 26 -15 45 -4 19 -11 40 -15 45 -4 6 -11 26 -15
45 -4 19 -11 40 -15 45 -4 6 -11 26 -15 45 -4 19 -11 40 -15 45 -4 6 -11 26
-15 45 -4 19 -11 41 -16 50 -6 12 -519 1556 -519 1563 0 1 561 0 1246 -3
l1246 -5 157 -470z"/>
</g>
</svg>
