<svg id="svg" version="1.1" xmlns="http://www.w3.org/2000/svg" xmlns:xlink="http://www.w3.org/1999/xlink" width="400" height="365.99999999999994" viewBox="0, 0, 400,365.99999999999994"><g id="svgg"><path id="path0" d="M186.265 46.966 C 78.600 59.262,26.592 181.678,92.571 267.500 C 115.197 296.930,161.399 322.328,172.364 311.364 C 178.773 304.955,173.701 295.222,162.000 291.478 C 106.671 273.773,73.438 210.430,89.348 153.000 C 114.816 61.064,236.446 38.309,292.466 115.000 C 298.392 123.112,299.077 122.977,274.389 118.568 C 244.278 113.190,244.101 112.938,285.092 133.869 C 322.627 153.035,323.936 153.312,330.070 143.387 C 333.570 137.723,333.361 136.882,311.718 69.750 C 306.723 54.255,305.595 56.036,306.246 78.391 L 306.782 96.782 297.124 87.141 C 268.008 58.077,225.107 42.530,186.265 46.966 M283.381 271.541 C 280.011 276.685,286.512 282.561,291.040 278.464 C 293.228 276.483,293.637 272.037,291.800 270.200 C 289.665 268.065,285.192 268.777,283.381 271.541 M263.073 289.635 C 258.105 295.950,266.337 303.663,272.000 298.000 C 274.655 295.345,274.530 291.847,271.686 289.174 C 268.595 286.271,265.592 286.432,263.073 289.635 M183.500 301.208 C 180.310 303.037,179.066 305.239,179.032 309.114 C 178.946 318.845,192.620 321.426,195.733 312.266 C 198.322 304.649,190.239 297.343,183.500 301.208 M238.400 301.765 C 234.891 304.108,234.195 309.195,237.000 312.000 C 241.303 316.303,248.000 313.397,248.000 307.228 C 248.000 302.613,242.131 299.274,238.400 301.765 M209.321 304.167 C 208.123 304.758,206.619 306.504,205.980 308.047 C 202.770 315.798,212.332 322.534,217.992 316.508 C 223.860 310.262,216.937 300.408,209.321 304.167 " stroke="none" fill="#000000" fill-rule="evenodd"></path></g></svg>