<?xml version="1.0" standalone="no"?>
<!DOCTYPE svg PUBLIC "-//W3C//DTD SVG 20010904//EN"
 "http://www.w3.org/TR/2001/REC-SVG-20010904/DTD/svg10.dtd">
<svg version="1.0" xmlns="http://www.w3.org/2000/svg"
 width="320.000000pt" height="320.000000pt" viewBox="0 0 320.000000 320.000000"
 preserveAspectRatio="xMidYMid meet">
<metadata>
Created by potrace 1.16, written by Peter Selinger 2001-2019
</metadata>
<g transform="translate(0.000000,320.000000) scale(0.100000,-0.100000)"
fill="#000000" stroke="none">
<path d="M857 2983 c-10 -10 -8 -81 2 -87 5 -4 5 -22 -1 -43 -13 -52 -20 -108
-21 -175 -1 -40 -5 -58 -14 -58 -17 0 -17 -26 1 -33 7 -3 16 -17 18 -31 5 -23
3 -25 -31 -23 -46 3 -50 -24 -5 -33 41 -9 50 -15 66 -48 10 -20 11 -32 3 -47
-25 -50 -27 -50 -54 -18 -31 37 -129 84 -189 91 -28 3 -49 12 -60 26 -21 27
-52 40 -52 23 0 -35 66 -86 114 -88 16 0 14 -4 -12 -15 -18 -8 -35 -21 -38
-29 -4 -8 -10 -12 -15 -9 -5 3 -9 0 -9 -5 0 -14 2 -13 74 4 70 16 89 11 137
-42 59 -64 62 -75 42 -136 -10 -28 -22 -55 -27 -58 -5 -4 -6 -25 -3 -48 5 -44
-4 -52 -25 -23 -15 21 -105 38 -199 37 -77 0 -91 -20 -21 -29 38 -5 51 -11 55
-26 4 -16 14 -20 48 -20 53 0 127 -36 188 -90 25 -22 48 -40 52 -40 5 0 20
-12 34 -27 32 -35 33 -63 3 -62 -16 0 -32 15 -53 47 -42 66 -98 101 -158 102
-27 0 -57 5 -68 11 -13 7 -24 7 -32 1 -12 -10 -133 -25 -191 -23 -20 0 -30 -5
-33 -19 -4 -15 -14 -20 -40 -20 -23 0 -42 -8 -59 -25 -14 -14 -29 -25 -35 -25
-18 0 -59 -32 -59 -46 0 -8 -5 -14 -11 -14 -16 0 -99 -88 -99 -105 0 -28 44
-27 100 4 30 17 75 40 100 52 49 24 192 49 280 48 49 -1 52 -2 25 -10 -16 -5
-50 -11 -75 -14 -57 -7 -118 -23 -151 -41 -14 -7 -29 -11 -32 -8 -3 3 -30 -6
-60 -20 -29 -14 -64 -26 -76 -26 -18 0 -22 -5 -19 -27 3 -25 9 -29 54 -38 28
-5 58 -16 67 -23 34 -29 244 -44 309 -23 21 7 47 10 58 6 11 -4 20 -2 20 4 0
6 10 11 23 11 41 0 84 35 91 75 4 21 11 45 16 54 5 9 11 23 13 32 3 9 19 21
36 27 25 9 29 8 24 -4 -3 -8 -9 -14 -14 -14 -5 0 -9 -9 -9 -20 0 -11 -4 -20
-10 -20 -5 0 -10 -7 -10 -16 0 -25 44 -13 48 14 2 12 9 22 17 22 7 0 20 2 27
5 15 6 38 -49 30 -73 -5 -15 -29 -16 -34 -1 -2 7 -15 9 -34 5 -27 -6 -30 -10
-26 -36 2 -17 8 -30 13 -30 5 0 9 -11 9 -25 0 -14 9 -34 20 -45 11 -11 20 -24
20 -29 0 -5 9 -13 20 -16 23 -7 27 -25 5 -25 -8 0 -15 -9 -15 -20 0 -11 5 -20
12 -20 7 0 55 -14 108 -31 96 -30 129 -52 181 -121 20 -27 59 -39 59 -17 0 15
93 7 105 -9 15 -19 109 4 101 25 -7 16 3 12 51 -23 24 -18 30 -29 26 -45 -5
-19 -3 -21 18 -16 13 4 27 7 32 7 12 0 8 30 -5 43 -7 7 -30 25 -51 41 -21 15
-36 30 -34 32 8 8 99 -40 127 -66 33 -31 65 -93 50 -98 -5 -2 -10 -11 -10 -20
0 -9 -8 -1 -19 18 -25 47 -42 48 -69 0 -20 -36 -25 -39 -53 -33 l-31 6 3 -46
c5 -54 1 -52 -23 11 -22 57 -22 62 -3 62 8 0 15 7 15 15 0 12 -9 14 -42 9 -55
-7 -82 -12 -102 -20 -11 -4 -16 -1 -16 10 0 9 -8 16 -19 16 -10 0 -24 6 -30
14 -7 8 -23 17 -37 20 -22 6 -85 48 -141 95 -13 11 -36 25 -53 33 -16 7 -30
16 -30 20 0 5 -6 8 -13 8 -7 0 -23 9 -35 20 -12 11 -28 20 -37 20 -8 0 -24 5
-35 12 -14 9 -24 9 -42 0 -13 -6 -36 -13 -53 -14 -45 -4 -37 -27 16 -48 52
-19 158 -98 158 -117 1 -16 41 -17 41 -1 0 18 41 -24 61 -64 25 -48 24 -53 -6
-31 -13 10 -25 26 -25 35 0 23 -16 31 -32 15 -13 -13 -77 -13 -87 1 -14 18
-56 33 -115 41 -70 10 -106 6 -106 -13 0 -7 -3 -7 -8 1 -11 17 -139 -48 -161
-80 -22 -33 -48 -57 -60 -57 -18 0 -12 -48 6 -59 14 -7 10 -10 -22 -16 -49 -8
-90 -29 -90 -47 0 -8 22 -17 58 -23 36 -6 64 -17 72 -28 12 -16 30 -19 148
-20 108 -1 140 2 159 15 14 9 37 18 52 20 15 2 26 5 25 8 -1 3 23 30 53 60 30
30 57 60 59 66 6 16 59 27 59 13 0 -7 9 -9 25 -5 20 5 25 3 25 -14 0 -11 7
-20 15 -20 8 0 15 5 15 11 0 5 5 7 10 4 6 -3 7 -17 4 -31 -4 -14 -2 -24 4 -24
6 0 23 -5 38 -10 26 -10 26 -11 8 -24 -10 -7 -39 -16 -62 -20 -24 -4 -51 -13
-59 -21 -8 -9 -19 -13 -23 -10 -5 3 -26 -12 -46 -35 -20 -22 -45 -40 -55 -40
-25 0 -37 -34 -37 -101 0 -30 -1 -60 -3 -68 -2 -7 2 -16 9 -18 7 -3 19 10 27
32 18 42 101 125 126 125 24 0 40 24 37 55 -3 23 3 31 36 48 32 17 42 18 58 8
15 -9 23 -10 31 -2 19 19 32 12 45 -21 10 -26 9 -33 -5 -43 -15 -11 -13 -14
15 -29 25 -13 32 -23 34 -49 2 -47 -1 -69 -13 -100 -9 -22 -18 -27 -45 -27
-35 0 -41 -9 -24 -40 19 -35 3 -50 -46 -43 -37 5 -44 3 -44 -11 0 -9 6 -16 13
-16 8 0 22 -9 33 -21 14 -16 16 -22 5 -28 -7 -5 -22 -6 -32 -4 -20 6 -28 -20
-10 -31 15 -10 1 -43 -23 -56 -25 -13 -91 -6 -113 11 -7 6 -20 8 -29 5 -13 -5
-13 -8 -2 -19 7 -8 23 -19 36 -26 12 -6 22 -20 22 -30 0 -15 -11 -19 -65 -23
-36 -3 -71 -10 -78 -15 -6 -6 -24 -13 -39 -17 -33 -8 -98 -62 -98 -82 0 -17
34 -18 48 -1 7 8 35 11 84 10 225 -6 257 3 356 90 39 34 83 79 99 99 15 21 36
37 46 38 10 0 21 8 24 17 10 26 35 50 61 57 13 5 22 15 22 28 0 11 7 26 16 32
8 6 16 18 17 26 2 9 15 32 30 51 30 39 32 63 16 139 -10 46 -9 53 8 65 10 8
26 15 35 15 10 0 36 10 58 21 33 17 52 21 96 16 46 -5 54 -3 54 11 0 9 -14 25
-31 35 l-31 17 33 38 c17 20 38 41 46 45 7 4 13 14 13 22 0 8 12 17 28 21 46
10 80 25 97 44 11 12 38 21 78 25 79 9 199 65 243 114 19 20 34 42 34 48 0 9
7 10 26 3 45 -17 134 -12 186 12 26 12 48 25 48 29 0 5 17 20 37 34 32 21 49
25 111 25 55 0 74 -4 78 -15 4 -8 10 -15 15 -15 14 0 49 -33 49 -47 0 -7 9
-13 20 -13 11 0 20 2 20 4 0 38 -36 157 -55 182 -14 18 -25 40 -25 48 0 9 -11
23 -25 32 -20 13 -23 20 -15 34 15 29 12 32 -20 25 -17 -4 -36 -3 -43 2 -7 5
-30 15 -52 22 -22 7 -55 19 -73 27 -35 16 -45 17 -108 8 -39 -5 -41 -4 -40 18
0 13 7 23 15 23 8 0 16 7 18 15 4 13 3 13 -6 0 -6 -9 -11 -10 -11 -3 0 6 6 18
13 25 26 25 50 104 38 125 -5 11 -6 24 -2 29 5 5 12 28 16 51 5 35 4 42 -12
46 -17 4 -17 5 1 6 14 1 17 6 12 27 -4 15 -10 39 -13 55 -3 16 -9 29 -14 29
-5 0 -9 14 -9 31 0 26 -3 31 -20 26 -11 -3 -20 -1 -20 4 0 5 -5 9 -11 9 -5 0
-7 -5 -3 -12 4 -7 3 -8 -4 -4 -7 4 -12 2 -12 -3 0 -6 -7 -11 -15 -11 -20 0
-19 -24 1 -44 19 -20 23 -20 46 1 17 15 18 15 18 -5 0 -11 -4 -23 -8 -26 -5
-3 -7 -19 -4 -35 2 -17 8 -29 12 -26 5 3 7 -7 4 -21 -3 -16 0 -31 8 -35 7 -5
8 -9 2 -9 -6 0 -11 -23 -13 -51 -3 -73 -55 -199 -82 -199 -16 0 -28 43 -15 59
13 16 18 330 5 346 -10 14 -4 74 10 88 8 8 11 7 11 -6 0 -21 13 -22 30 -2 10
12 9 16 -4 21 -9 3 -16 12 -16 20 0 8 -9 14 -20 14 -11 0 -20 5 -20 10 0 23
-31 7 -44 -22 -12 -27 -15 -29 -15 -11 -1 12 -7 24 -13 26 -7 3 -3 6 9 6 33 1
39 21 12 42 -36 28 -58 24 -66 -11 -3 -16 -12 -30 -19 -30 -24 0 7 58 69 130
31 37 37 40 37 22 0 -13 -6 -22 -15 -22 -9 0 -15 -9 -15 -24 0 -29 17 -43 33
-27 17 17 51 13 78 -8 13 -10 33 -20 44 -23 14 -2 19 -10 17 -26 -3 -18 2 -22
25 -22 33 -1 68 -24 58 -39 -3 -6 -12 -8 -18 -5 -8 5 -8 3 1 -7 6 -7 12 -21
12 -31 0 -10 5 -18 10 -18 6 0 10 -13 10 -30 0 -24 4 -30 21 -30 18 0 20 -2 8
-16 -8 -10 -9 -18 -3 -22 6 -4 13 -15 17 -24 11 -31 33 -19 28 15 -2 14 20 7
25 -8 8 -19 -15 -48 -31 -41 -8 3 -11 -2 -8 -15 3 -10 10 -19 15 -19 5 0 7 4
4 9 -3 5 5 11 19 13 21 4 25 1 25 -19 0 -16 7 -27 19 -30 25 -6 64 -61 57 -79
-3 -8 -17 -19 -31 -24 -14 -5 -25 -16 -25 -24 0 -15 -35 -32 -57 -28 -7 2 -17
-7 -23 -18 -6 -11 -17 -20 -25 -20 -8 0 -15 -4 -15 -10 0 -5 -7 -10 -15 -10
-8 0 -15 -9 -15 -20 0 -20 37 -37 62 -27 7 3 3 6 -9 6 -25 1 -32 21 -8 21 34
0 113 46 158 92 57 60 62 92 17 132 -34 30 -79 120 -82 163 -1 15 -5 33 -8 38
-4 6 -10 30 -14 55 -8 54 -21 70 -53 70 -14 0 -53 20 -87 44 -33 24 -78 49
-98 56 -20 8 -39 22 -42 33 -3 13 0 17 10 13 8 -3 14 0 14 6 0 6 3 8 7 5 3 -4
17 2 29 14 14 13 24 17 29 10 9 -15 48 -14 64 2 11 10 13 9 8 -5 -4 -10 -2
-18 3 -18 5 0 12 -10 16 -22 11 -36 80 -98 108 -98 14 0 28 -5 32 -11 10 -17
72 -3 148 32 55 26 64 34 56 47 -17 32 -61 72 -78 72 -10 0 -26 6 -37 14 -38
25 -206 39 -213 17 -4 -13 -32 -15 -32 -2 0 17 96 48 155 50 44 2 66 8 81 22
11 10 27 19 36 19 20 0 44 29 52 63 5 22 11 27 25 22 24 -7 36 31 14 44 -19
10 -9 31 15 31 14 0 17 11 18 60 1 52 -1 60 -17 60 -11 0 -19 -7 -19 -17 0
-14 -9 -18 -34 -19 -30 0 -33 2 -23 17 6 10 8 21 4 25 -9 9 -32 -12 -32 -29 0
-7 -10 -16 -22 -22 -13 -5 -23 -16 -23 -23 0 -9 -6 -12 -15 -8 -8 3 -15 1 -15
-4 0 -6 -7 -10 -16 -10 -11 0 -15 -6 -11 -20 3 -10 -1 -24 -9 -31 -10 -8 -14
-8 -14 0 0 17 -30 13 -36 -4 -4 -8 -1 -22 6 -30 10 -12 9 -15 -8 -15 -21 0
-47 -33 -58 -74 -6 -25 -47 -57 -92 -71 -20 -6 -22 -4 -17 18 4 14 2 28 -4 31
-5 4 -7 21 -4 40 8 53 -10 76 -61 76 -36 0 -49 -6 -79 -36 -40 -40 -52 -39
-60 5 -14 68 -145 81 -232 22 l-43 -29 -46 55 c-25 30 -46 59 -46 64 0 4 -16
35 -35 68 -40 68 -74 91 -134 91 -36 0 -44 -5 -71 -42 -36 -49 -66 -73 -75
-58 -3 5 -14 10 -23 10 -25 0 -160 -57 -178 -75 -9 -8 -23 -15 -33 -15 -9 0
-22 -5 -27 -10 -6 -6 -38 -15 -72 -21 -46 -8 -65 -17 -77 -35 -8 -13 -19 -24
-23 -24 -9 0 -32 49 -32 67 0 7 -6 13 -12 13 -25 0 -41 18 -42 47 -1 22 -6 29
-26 31 -14 2 -29 9 -35 16 -12 14 -111 56 -134 56 -9 0 -36 14 -60 30 -43 29
-71 37 -84 23z m234 -139 c6 -8 18 -14 25 -14 40 0 102 -118 90 -170 -6 -30
-18 -50 -30 -50 -21 -1 -66 -79 -66 -115 0 -18 4 -36 8 -39 12 -7 9 -89 -3
-93 -5 -1 -18 16 -29 40 -10 23 -23 51 -28 63 -6 12 -7 52 -3 90 11 126 10
217 -3 222 -7 2 -12 12 -12 23 0 12 -7 19 -20 19 -21 0 -27 -15 -10 -25 8 -5
7 -11 -1 -21 -9 -11 -9 -17 0 -28 9 -11 8 -17 -4 -29 -8 -9 -15 -19 -15 -22 0
-19 -34 -75 -45 -75 -7 0 -15 -10 -19 -22 -4 -17 -8 -20 -17 -11 -13 13 2 62
26 93 24 29 56 102 53 118 -3 11 -12 -1 -25 -30 -12 -27 -27 -48 -32 -48 -6 0
-11 -7 -11 -15 0 -8 -4 -15 -10 -15 -5 0 -10 7 -10 15 0 8 5 15 10 15 6 0 10
4 10 10 0 5 14 32 31 60 22 37 37 50 54 50 12 0 25 6 28 14 7 17 41 11 58 -10z
m549 -30 c0 -4 -10 -28 -22 -53 -28 -56 -75 -101 -105 -101 -16 0 -23 -6 -23
-19 0 -13 -10 -21 -34 -25 -19 -4 -64 -29 -101 -56 -37 -27 -75 -52 -85 -55
-11 -3 -22 -14 -25 -23 -8 -23 -51 -53 -67 -47 -8 3 -20 21 -27 40 -10 30 -10
39 4 62 15 24 69 66 127 98 10 5 16 15 14 21 -3 7 9 24 25 40 16 15 29 22 29
16 0 -7 7 -12 15 -12 8 0 15 6 15 13 0 10 14 14 45 15 32 0 55 8 87 31 24 16
55 33 71 37 15 3 30 10 33 15 6 10 24 12 24 3z m205 -3 c-3 -5 4 -12 15 -16
11 -3 20 -10 20 -15 0 -10 25 -20 65 -27 34 -5 75 -39 75 -61 0 -9 7 -13 20
-9 12 3 17 1 14 -5 -3 -5 3 -12 14 -15 11 -3 23 -12 26 -20 3 -8 11 -11 18 -7
7 3 -4 -10 -25 -30 -42 -40 -52 -43 -60 -21 -8 19 -71 50 -137 65 -51 12 -150
73 -150 92 0 4 -14 8 -30 8 -28 0 -34 -6 -58 -60 -15 -33 -30 -60 -34 -60 -3
0 -19 -10 -34 -22 -44 -37 -120 -110 -106 -103 16 8 15 -5 -3 -29 -11 -15 -15
-16 -16 -5 -1 33 -18 -29 -18 -71 -1 -50 32 -109 102 -185 20 -22 37 -49 38
-60 0 -11 2 -39 4 -63 l3 -43 -19 23 c-10 13 -23 29 -29 36 -6 6 -17 12 -25
12 -24 0 -17 -22 15 -54 31 -30 35 -42 24 -71 -5 -13 -8 -14 -15 -3 -5 7 -9
23 -9 34 0 27 -75 94 -105 94 -13 0 -25 6 -28 14 -3 7 -21 16 -39 20 -53 10
-191 82 -207 108 -20 32 -23 74 -6 88 11 9 17 6 29 -17 24 -46 77 -90 156
-128 41 -20 89 -45 105 -56 44 -28 55 -32 63 -25 3 4 1 16 -6 27 -10 16 -10
22 2 34 8 8 19 15 25 15 6 0 11 7 11 15 0 8 -7 15 -15 15 -8 0 -15 4 -15 8 0
4 -14 16 -31 26 -66 39 -89 78 -89 150 0 43 5 61 24 83 13 15 24 33 25 38 0 6
4 10 9 10 15 0 61 42 54 50 -4 3 -2 5 3 4 17 -5 103 54 114 78 23 49 65 107
69 95 5 -16 32 -15 46 2 6 8 36 22 66 30 30 8 56 15 58 15 2 1 1 -3 -3 -8z
m717 -155 c-2 -21 2 -44 9 -52 8 -10 8 -14 0 -14 -6 0 -11 -12 -11 -28 0 -26
-14 -38 -82 -69 -3 -2 -4 23 -1 55 3 35 1 67 -6 80 -14 27 -4 51 25 58 13 3
22 10 19 14 -3 5 7 5 22 1 25 -7 28 -12 25 -45z m-330 -43 c10 -3 20 -14 24
-25 7 -25 -14 -78 -32 -78 -19 0 -7 -60 17 -82 10 -10 21 -34 25 -53 3 -19 11
-35 16 -35 7 0 6 -5 0 -13 -7 -8 -9 -29 -5 -50 4 -24 2 -37 -6 -37 -6 0 -11
16 -11 35 0 19 -4 35 -9 35 -11 0 -25 -75 -17 -88 3 -5 -1 -18 -9 -28 -8 -10
-15 -31 -15 -46 0 -20 -10 -34 -37 -53 -51 -34 -57 -32 -33 12 11 21 20 50 20
64 0 15 7 32 15 39 9 7 14 19 11 27 -3 7 -2 13 3 13 14 0 20 37 8 49 -8 8 -7
11 2 11 11 0 12 12 7 53 -7 62 -29 112 -63 145 -41 38 -74 22 -37 -19 9 -10
23 -33 32 -51 15 -30 16 -38 3 -78 -8 -25 -18 -46 -23 -48 -4 -2 -8 -8 -8 -14
0 -6 -11 -19 -25 -30 -14 -11 -25 -30 -25 -42 0 -44 -66 -86 -134 -86 -39 0
-46 -3 -46 -20 0 -13 7 -20 20 -20 11 0 20 -6 20 -14 0 -16 -49 -26 -105 -21
-22 2 -44 4 -50 4 -5 1 2 9 15 18 14 10 38 16 58 14 28 -2 33 0 30 16 -2 12
-12 18 -29 18 -33 1 -65 23 -73 51 -6 18 -3 21 18 17 14 -3 28 -13 31 -23 11
-34 50 -32 127 5 82 39 158 103 158 133 0 11 7 25 15 32 20 16 20 60 0 60 -8
0 -17 11 -21 25 -4 16 -13 25 -25 25 -15 0 -19 7 -19 35 0 28 8 42 41 73 47
43 88 64 109 55 8 -3 23 -7 32 -10z m-526 -23 c19 0 34 3 34 8 0 4 17 7 37 7
30 0 39 -4 42 -20 3 -17 2 -18 -14 -5 -17 14 -17 13 -6 -8 10 -18 10 -27 0
-38 -9 -11 -7 -14 12 -15 13 -1 4 -5 -21 -10 -31 -6 -46 -5 -51 3 -9 14 -49
-17 -49 -37 0 -26 -33 -75 -53 -80 -59 -12 -62 -11 -84 32 -26 48 -28 62 -12
97 7 15 17 22 26 19 11 -4 14 0 11 17 -2 13 3 25 11 28 8 3 11 0 7 -7 -9 -14
-7 -14 32 0 17 6 31 14 31 17 -3 18 4 25 8 10 3 -13 15 -18 39 -18z m242 -26
c40 -20 70 -76 78 -142 3 -34 10 -59 14 -57 4 3 10 -4 13 -15 6 -23 -3 -26
-21 -8 -9 9 -12 7 -12 -12 0 -14 -9 -44 -20 -67 -15 -34 -24 -43 -44 -43 -23
0 -25 2 -16 26 13 34 13 37 -6 30 -14 -6 -14 -3 2 21 42 64 46 80 33 125 -7
24 -12 47 -10 52 4 19 -24 38 -50 32 -20 -4 -29 0 -39 18 -10 20 -9 27 6 43
19 20 29 19 72 -3z m-578 -60 c-6 -14 -10 -36 -10 -50 0 -13 -4 -24 -10 -24
-12 0 -13 -47 -1 -54 15 -10 20 -45 5 -39 -8 3 -15 -5 -20 -24 -12 -56 -16
-63 -31 -63 -9 0 -38 22 -65 49 l-49 49 45 47 c26 26 43 51 40 57 -3 5 0 8 8
6 17 -4 62 31 71 55 3 9 11 17 16 17 7 0 7 -9 1 -26z m525 -54 c26 6 35 4 39
-7 8 -21 7 -108 -1 -100 -10 11 -33 -14 -33 -37 0 -33 -28 -66 -57 -66 -16 0
-37 12 -57 35 -18 19 -38 35 -44 35 -29 0 -8 18 28 24 22 3 40 11 40 17 0 15
45 108 48 99 2 -4 18 -4 37 0z m-852 -41 l21 -12 -22 -8 c-26 -10 -37 -32 -28
-55 5 -14 8 -14 21 0 23 22 43 10 37 -22 -5 -20 -7 -22 -10 -9 -2 10 -11 17
-20 16 -9 -1 -28 2 -41 8 -16 6 -32 6 -48 -1 -26 -12 -29 -26 -11 -44 10 -10
8 -14 -10 -18 -24 -7 -28 -19 -10 -30 7 -4 8 -3 4 5 -6 8 -1 10 16 6 12 -3 37
-7 53 -9 17 -2 34 -4 39 -5 17 -2 -5 -15 -27 -16 -71 -4 -76 -5 -71 -19 3 -8
11 -13 19 -10 9 4 11 -2 8 -20 -4 -19 0 -28 13 -33 11 -4 43 -26 72 -50 29
-24 57 -43 62 -43 13 0 120 -146 120 -164 0 -8 9 -20 20 -26 11 -6 20 -16 20
-24 0 -14 95 -106 110 -106 6 0 10 -4 10 -10 0 -15 21 -12 42 7 18 16 18 16
12 0 -4 -10 -1 -17 6 -17 10 0 10 -3 0 -15 -7 -8 -17 -12 -23 -8 -13 8 -65 5
-81 -4 -16 -10 -48 -8 -72 5 -11 6 -30 8 -42 5 -14 -3 -22 -1 -22 7 0 9 -13
11 -44 8 -39 -5 -43 -3 -39 13 6 22 8 22 86 9 52 -8 61 -7 79 10 21 19 17 40
-8 40 -8 0 -14 7 -14 15 0 9 -10 15 -26 15 -14 0 -23 -4 -20 -8 2 -4 -4 -8
-15 -8 -18 0 -18 2 -5 12 9 6 16 16 16 23 0 14 -22 15 -36 1 -14 -14 -74 -1
-74 17 0 8 4 12 9 9 4 -3 6 6 3 19 -2 14 -9 25 -14 25 -5 0 -6 -4 -3 -10 3 -5
1 -10 -5 -10 -8 0 -9 10 -5 30 6 26 4 30 -15 30 -12 0 -19 -4 -16 -9 3 -5 -1
-11 -9 -15 -12 -4 -15 3 -15 29 0 37 -28 75 -55 75 -8 0 -15 7 -15 15 0 8 -7
15 -15 15 -8 0 -15 7 -15 15 0 8 -4 15 -10 15 -5 0 -10 7 -10 15 0 8 -7 15
-15 15 -8 0 -15 4 -15 9 0 5 -9 11 -20 14 -11 3 -20 1 -20 -4 0 -5 -4 -9 -10
-9 -21 0 -11 98 15 146 14 26 25 56 25 66 0 24 33 68 63 85 28 16 72 16 100 2z
m629 -166 c23 -4 30 -14 46 -63 l18 -57 -28 -32 c-30 -34 -62 -40 -72 -15 -3
9 -6 34 -6 57 -1 29 -8 51 -25 71 -22 27 -22 31 -7 43 9 7 24 10 32 6 8 -3 27
-8 42 -10z m-480 -48 c38 -19 43 -26 44 -56 1 -53 3 -59 17 -59 7 0 28 -11 47
-25 38 -28 60 -32 60 -10 0 8 -4 15 -10 15 -5 0 -10 7 -10 15 0 10 10 15 34
15 56 0 81 -15 116 -70 33 -52 34 -53 17 -82 -9 -16 -15 -34 -11 -39 7 -11 34
-12 34 0 0 4 18 20 40 35 22 14 40 33 40 41 0 8 5 15 10 15 6 0 10 -4 10 -10
0 -5 10 -10 21 -10 16 0 20 5 17 18 -10 36 49 47 262 47 216 0 233 4 308 74
28 27 33 36 27 61 -6 26 -4 30 15 30 16 0 20 -4 16 -16 -3 -9 -6 -25 -6 -36 0
-20 -115 -138 -135 -138 -5 0 -25 -14 -44 -30 -33 -29 -50 -34 -122 -30 -31 1
-37 -2 -41 -23 -3 -17 0 -24 10 -23 8 0 17 -5 19 -12 3 -7 -1 -10 -10 -6 -8 3
-37 -4 -64 -15 -26 -11 -77 -24 -112 -30 -36 -6 -68 -15 -71 -21 -4 -7 -23 -8
-48 -4 -34 5 -42 4 -42 -9 0 -29 57 -36 103 -12 15 8 25 9 21 4 -4 -7 1 -9 14
-5 11 4 35 9 53 12 38 6 50 8 134 25 90 17 115 31 185 101 30 30 46 27 29 -4
-6 -11 -8 -26 -5 -33 3 -8 1 -17 -3 -19 -5 -3 -11 -19 -14 -36 -4 -18 -13 -30
-22 -30 -8 0 -15 -9 -15 -20 0 -12 -5 -17 -14 -14 -19 7 -32 -16 -15 -27 10
-6 9 -10 -6 -15 -11 -4 -23 -12 -28 -18 -4 -7 -9 -2 -13 12 -7 23 -19 29 -29
12 -3 -5 -13 -6 -21 -3 -9 3 -19 1 -23 -5 -4 -7 -23 -14 -44 -16 -20 -3 -46
-10 -57 -16 -12 -6 -59 -12 -105 -13 -52 -1 -89 -7 -97 -14 -6 -7 -20 -13 -30
-13 -38 0 -86 39 -65 52 6 4 15 2 19 -5 4 -6 10 -8 14 -4 7 7 -33 42 -48 42
-3 0 -10 4 -15 9 -5 5 -3 6 5 2 7 -4 12 -1 12 8 0 19 28 35 51 29 13 -4 19 0
19 10 0 18 -50 37 -96 37 -29 0 -33 3 -31 26 1 15 -4 29 -10 31 -7 3 -13 -2
-13 -11 0 -19 -16 -21 -23 -3 -8 21 -42 -7 -42 -34 1 -32 -17 -49 -44 -42 -25
6 -28 23 -3 23 10 1 1 9 -22 21 l-38 21 21 19 c18 17 31 79 17 79 -17 0 -35
-14 -29 -24 3 -6 3 -8 -2 -4 -4 4 -16 3 -26 -2 -12 -7 -20 -7 -24 0 -4 6 -25
22 -46 36 -22 14 -43 34 -48 46 -4 11 -25 33 -47 48 -21 15 -38 32 -37 37 1 6
4 26 6 44 2 19 12 49 22 67 18 30 21 31 32 15 7 -9 32 -26 55 -38z m1163 -1
c8 -4 23 0 32 7 15 13 15 12 4 -10 -11 -20 -11 -25 3 -33 9 -5 16 -17 16 -27
0 -10 6 -30 13 -45 17 -32 15 -213 -3 -257 -11 -26 -11 -32 1 -40 9 -5 -14 -9
-63 -9 -42 0 -79 -4 -82 -9 -6 -8 -43 -18 -98 -24 -29 -3 -47 18 -23 27 7 2
19 31 25 63 6 32 18 77 27 100 12 33 13 46 4 57 -9 11 -2 22 36 56 62 54 72
73 73 140 1 44 3 50 10 32 5 -12 16 -25 25 -28z m-1485 -137 c15 -9 30 -14 33
-10 2 5 3 3 1 -3 -3 -14 37 -54 55 -54 7 0 10 -4 6 -9 -3 -5 5 -18 18 -28 30
-23 70 -87 84 -135 9 -30 8 -41 -7 -62 -17 -26 -17 -26 -35 -6 -10 11 -22 17
-28 13 -6 -4 -8 2 -4 16 10 40 -12 87 -63 135 -27 25 -56 46 -64 46 -9 0 -18
10 -20 23 -7 33 -15 125 -10 106 3 -8 18 -23 34 -32z m-101 -131 c39 -25 98
-92 89 -101 -8 -8 -47 -6 -148 5 -97 11 -326 5 -345 -9 -5 -4 -38 -14 -73 -21
-40 -8 -68 -20 -76 -32 -10 -14 -16 -16 -21 -7 -5 7 2 19 16 30 13 10 20 21
17 25 -10 9 22 33 45 34 9 0 17 5 17 10 0 6 8 10 19 10 10 0 24 7 31 15 7 8
25 15 41 15 15 0 31 5 34 10 3 6 16 10 29 10 12 0 26 4 32 9 10 11 48 15 172
19 73 2 86 -1 121 -22z m1686 -202 c46 -30 21 -114 -34 -114 -15 0 -32 -5 -38
-11 -5 -5 -26 -11 -44 -11 -19 0 -39 -5 -46 -10 -7 -6 -14 -5 -19 3 -4 8 -3 9
4 5 7 -4 12 -2 12 3 0 16 -17 13 -37 -4 -10 -8 -22 -16 -28 -16 -5 -1 -19 -8
-30 -15 -11 -8 -39 -14 -62 -14 -35 0 -43 -3 -43 -18 0 -13 -18 -25 -65 -42
-36 -13 -65 -28 -65 -32 0 -4 -6 -8 -14 -8 -8 0 -17 -7 -20 -17 -6 -15 -8 -14
-20 2 -15 20 -32 5 -22 -20 3 -10 -3 -17 -19 -21 -16 -4 -25 -14 -26 -28 -1
-15 -4 -11 -10 12 l-10 33 -29 -27 c-16 -16 -27 -31 -24 -36 3 -4 -4 -8 -15
-8 -12 0 -21 -7 -21 -15 0 -18 21 -20 38 -3 9 9 12 7 12 -9 0 -11 7 -26 15
-33 8 -7 15 -19 15 -26 0 -8 8 -14 18 -15 10 0 12 -3 5 -6 -7 -2 -13 -11 -13
-19 0 -8 -5 -14 -11 -14 -7 0 -9 -10 -5 -25 4 -14 2 -25 -4 -25 -5 0 -10 6
-10 14 0 8 -6 16 -14 19 -8 3 -20 24 -27 47 -12 41 -58 90 -84 90 -7 0 -15 7
-19 15 -3 8 -14 15 -23 15 -10 0 -29 7 -42 16 -21 15 -21 18 -7 26 9 5 16 15
16 22 0 8 7 17 16 20 12 5 13 10 5 19 -8 10 -3 21 23 46 21 21 36 29 40 22 16
-25 36 -11 37 27 0 20 3 31 6 25 6 -17 33 -16 33 1 0 7 -14 16 -32 20 -35 7
-35 10 4 20 25 6 28 3 34 -29 6 -34 34 -51 34 -20 0 8 9 15 20 15 11 0 20 6
20 14 0 16 80 46 123 46 34 0 107 -19 122 -32 16 -15 35 -8 35 12 0 11 5 20
10 20 6 0 13 1 18 2 11 4 52 55 52 66 0 15 32 24 40 12 5 -8 12 -7 22 4 38 37
152 43 203 10z m-1266 -63 c20 -5 62 -15 94 -21 31 -6 57 -16 57 -22 0 -5 7
-8 15 -4 12 4 15 -4 15 -39 0 -33 -4 -45 -15 -45 -8 0 -15 -7 -15 -15 0 -18
12 -19 28 -3 8 8 12 9 12 1 0 -6 -6 -14 -12 -17 -9 -3 -6 -10 9 -24 27 -24 16
-47 -17 -37 -13 4 -33 16 -44 27 -12 10 -29 17 -39 14 -25 -6 -47 3 -47 19 0
7 -13 16 -29 20 -16 3 -32 13 -35 21 -3 8 -12 14 -20 14 -9 0 -23 15 -32 33
-9 17 -20 34 -25 37 -5 3 -6 16 -2 28 6 25 39 29 102 13z m-186 -20 c-3 -14 3
-23 24 -33 15 -7 29 -22 31 -33 2 -12 13 -25 25 -30 13 -6 22 -19 21 -31 0
-19 2 -20 17 -11 15 9 23 7 41 -10 33 -31 91 -53 127 -49 17 2 31 0 31 -3 0
-4 16 -13 35 -20 38 -13 44 -32 23 -72 -10 -18 -20 -23 -40 -21 -18 2 -28 10
-29 20 -1 15 -2 16 -6 1 -2 -11 -17 -18 -39 -21 -27 -3 -33 -1 -29 10 3 8 -2
23 -12 34 -16 18 -16 19 3 12 31 -12 13 2 -48 35 -38 21 -70 31 -100 31 -39 1
-41 2 -21 13 22 12 22 13 3 25 -13 8 -20 23 -20 43 0 30 -2 31 -35 27 -34 -4
-35 -3 -30 23 5 20 1 30 -12 38 -20 11 -11 26 22 34 11 3 21 5 22 6 0 0 -1 -8
-4 -18z m517 -15 c8 -1 24 -7 35 -13 11 -6 37 -16 58 -22 20 -7 37 -17 37 -22
0 -5 12 -9 28 -10 28 -1 24 -3 -19 -13 -32 -7 -73 -42 -64 -55 3 -6 0 -8 -8
-5 -8 3 -23 -5 -33 -18 -15 -18 -28 -23 -60 -22 -49 2 -64 9 -64 31 0 9 -7 24
-15 33 -21 23 -9 59 17 52 18 -4 19 -3 9 17 -13 24 -7 41 15 41 8 0 14 5 14
11 0 7 7 8 18 4 9 -4 24 -8 32 -9z m1279 -18 c-10 -7 -8 -7 9 -3 13 4 22 2 22
-5 0 -7 8 -9 19 -5 11 3 22 1 26 -5 3 -5 -1 -10 -10 -10 -9 0 -15 -6 -12 -12
2 -7 12 -12 21 -10 9 2 19 -5 23 -15 4 -10 13 -22 20 -28 19 -15 29 -75 12
-75 -8 0 -20 9 -27 20 -9 15 -22 20 -55 19 -23 -1 -47 -6 -54 -11 -7 -5 -14
-5 -18 2 -9 15 -53 12 -62 -4 -4 -7 -19 -19 -33 -26 -13 -7 -33 -24 -43 -37
-10 -12 -29 -23 -42 -23 -13 0 -27 -4 -30 -10 -9 -15 -79 -12 -101 5 -12 9
-14 14 -6 15 7 0 12 8 11 18 -5 52 3 75 37 108 20 19 41 34 45 34 5 0 9 6 9
14 0 15 50 26 127 26 43 0 55 4 70 24 14 19 22 22 37 14 15 -8 16 -12 5 -20z
m-369 -45 c0 -3 -11 -14 -25 -25 -14 -11 -25 -25 -25 -33 0 -7 -7 -18 -15 -25
-17 -14 -21 -85 -5 -95 13 -8 1 -35 -16 -35 -8 0 -14 -5 -14 -12 0 -9 -3 -9
-12 0 -9 9 -18 5 -39 -17 -21 -23 -40 -31 -84 -36 -31 -4 -59 -13 -62 -20 -3
-9 -24 -13 -68 -12 -35 1 -61 5 -59 9 2 4 -1 10 -7 14 -7 4 -9 3 -6 -3 4 -6
-1 -17 -10 -24 -14 -12 -16 -12 -9 0 6 9 5 12 -5 9 -8 -3 -19 7 -27 21 -16 32
1 81 29 81 17 0 24 16 20 43 0 4 5 7 13 7 9 0 12 7 9 23 -3 16 -2 18 5 8 11
-16 67 -7 57 9 -3 6 2 10 13 10 10 0 27 9 37 20 10 11 26 20 36 20 10 0 21 5
24 10 3 6 24 10 46 10 27 0 39 4 39 14 0 16 52 26 74 14 10 -6 22 -2 35 11 18
18 51 20 51 4z m-1320 -253 c0 -4 21 -22 48 -39 26 -16 59 -42 74 -56 15 -14
33 -22 42 -19 13 5 14 1 6 -28 -6 -18 -10 -33 -10 -34 0 -1 -14 -4 -31 -8 -43
-8 -63 6 -87 61 -11 27 -32 61 -46 76 -13 14 -27 35 -31 46 -5 16 -2 18 15 14
11 -3 20 -9 20 -13z m-155 -190 c32 -12 43 -39 23 -54 -8 -6 -18 -20 -21 -31
-9 -28 -63 -67 -122 -90 -64 -24 -250 -25 -269 -1 -6 8 -31 20 -56 27 l-45 12
52 18 c29 10 97 39 150 65 137 67 216 82 288 54z m597 -270 c34 0 35 -3 2 -35
-14 -14 -23 -29 -20 -34 9 -13 -20 -88 -44 -113 -26 -28 -25 -37 2 -47 l23 -8
-23 -7 c-12 -4 -22 -12 -22 -17 0 -12 -29 -43 -34 -38 -2 2 -1 24 3 49 3 25 5
79 4 120 -2 41 -3 85 -3 97 0 12 -8 23 -18 26 -9 2 3 4 28 5 24 0 46 6 48 12
3 9 7 9 15 1 6 -6 24 -11 39 -11z m-146 -252 c-4 -35 -12 -68 -17 -75 -7 -7
-6 -13 1 -18 20 -12 10 -30 -30 -53 -23 -13 -40 -30 -40 -40 0 -10 -22 -41
-48 -70 -38 -41 -55 -52 -78 -52 -16 1 -44 -1 -61 -4 -38 -6 -39 -4 -17 29 9
14 14 34 11 45 -4 17 0 20 32 20 47 0 85 32 78 66 -3 17 1 24 20 28 17 5 23
13 23 35 0 18 8 34 21 43 14 9 22 25 23 46 1 24 6 32 19 32 10 0 20 7 23 15 4
8 15 15 26 15 19 0 20 -4 14 -62z"/>
</g>
</svg>
