<?xml version="1.0" standalone="no"?>
<!DOCTYPE svg PUBLIC "-//W3C//DTD SVG 20010904//EN"
 "http://www.w3.org/TR/2001/REC-SVG-20010904/DTD/svg10.dtd">
<svg version="1.0" xmlns="http://www.w3.org/2000/svg"
 width="42.000000pt" height="30.000000pt" viewBox="0 0 42.000000 30.000000"
 preserveAspectRatio="xMidYMid meet">
<metadata>
Created by potrace 1.16, written by Peter Selinger 2001-2019
</metadata>
<g transform="translate(0.000000,30.000000) scale(0.100000,-0.100000)"
fill="#000000" stroke="none">
<path d="M247 280 c-81 -64 -32 -210 65 -197 35 5 39 2 62 -37 20 -33 26 -38
31 -24 4 11 -2 30 -16 49 -19 28 -21 35 -11 63 24 66 8 127 -39 152 -38 19
-62 18 -92 -6z m83 -20 c10 -5 23 -23 28 -40 19 -53 -14 -110 -63 -110 -27 0
-65 46 -65 80 0 19 9 40 25 55 26 27 46 31 75 15z"/>
</g>
</svg>
